<svg width="443" height="333" viewBox="0 0 443 333" fill="none" xmlns="http://www.w3.org/2000/svg">
    <g clip-path="url(#clip0)">
        <path d="M258.984 237.092C305.06 253.48 350.821 270.718 396.267 288.806C400.176 290.362 404.224 292.001 407.323 294.332C410.423 296.662 412.278 299.892 410.53 301.693C392.427 295.615 374.441 289.164 356.571 282.34C351.957 282.811 346.603 284.11 348.053 287.576C349.056 289.974 352.962 292.019 356.548 293.347C363.043 295.753 369.96 297.094 376.131 300.081C382.301 303.069 387.447 308.791 384.283 311.592C381.88 313.719 375.993 313.039 370.99 311.459C365.987 309.88 361.133 307.534 356.095 306.389C351.308 305.301 346.779 305.392 342.105 304.898C334.733 304.119 327.065 301.889 319.546 299.624C261.812 282.238 204.891 261.203 148.108 240.215C125.119 231.718 101.827 223.084 80.8617 211.536C68.9109 204.954 57.8786 197.509 45.6312 191.239C31.0017 183.75 15.0879 178.162 -0.587622 172.44C-28.1066 162.396 -55.3713 151.734 -82.3818 140.455C-84.3918 139.615 -86.7905 138.399 -86.9329 137.089C-87.0991 135.559 -84.1173 135.514 -81.721 135.812C-68.1541 137.533 -54.745 140.328 -41.6201 144.171C-34.9694 146.107 -28.2038 148.34 -21.6881 149.041C-15.1724 149.741 -8.80306 148.518 -7.50542 144.829C-7.10957 143.704 -7.1403 142.332 -5.84111 141.688C-4.11595 140.834 -0.951845 141.659 1.73504 142.488C31.5207 151.676 61.1246 161.848 90.3593 172.937C100.643 176.838 110.927 180.869 121.429 183.954C130.033 186.483 138.686 188.348 147.321 190.42C158.912 193.201 209.758 204.212 214.765 212.348C218.514 218.439 207.288 215.313 220.819 222.226C232.6 228.246 246.429 232.627 258.984 237.092Z" fill="#F2F2F2"/>
        <path d="M87.3647 152.265C87.3647 152.265 57.9366 179.633 72.4159 184.976C86.8952 190.318 269.068 258.361 277.606 250.825C283.588 245.545 290.288 221.362 293.763 207.355C294.438 204.633 294.045 201.755 292.663 199.313C291.281 196.872 289.016 195.051 286.334 194.227C246.074 181.844 95.6942 135.52 96.7067 134.75C98.7078 133.227 97.6026 133.436 97.6026 133.436C97.6026 133.436 85.0028 149.75 87.3647 152.265Z" fill="#3F3D56"/>
        <path opacity="0.1" d="M294.124 207.489C294.8 204.767 294.407 201.889 293.025 199.447C291.643 197.005 289.378 195.185 286.695 194.361C246.436 181.978 96.0562 135.654 97.0687 134.884C99.0698 133.361 97.9646 133.57 97.9646 133.57C97.9646 133.57 95.152 137.212 92.4336 141.32C92.5891 141.36 92.6492 141.543 91.8433 142.222C91.7283 142.4 91.6139 142.578 91.5001 142.756C97.1887 145.518 241.625 190.011 280.958 202.108C283.64 202.933 285.905 204.753 287.287 207.195C288.669 209.637 289.062 212.514 288.387 215.237C285.803 225.65 281.437 241.687 276.909 251.4C277.294 251.345 277.658 251.193 277.968 250.958C283.95 245.678 290.649 221.496 294.124 207.489Z" fill="black"/>
        <path d="M126.248 109.325C124.576 108.051 122.464 106.425 123.128 105.288C123.481 104.684 124.532 104.499 125.359 104.188C126.953 103.59 127.822 102.239 126.896 100.751C125.97 99.263 122.893 97.9744 121.354 98.6193C120.562 98.951 120.343 99.6528 119.81 100.161C118.147 101.746 113.994 101.178 110.455 100.727C106.916 100.275 102.751 100.327 102.319 102.442C101.847 104.749 106.164 108.543 103.453 109.658C102.469 110.062 100.786 109.869 100.172 110.52C99.7407 110.978 100.001 111.702 100.269 112.365L102.171 117.075C102.928 118.95 103.678 120.962 102.675 122.367C100.685 125.151 93.3694 123.798 88.0456 121.438C86.096 120.574 83.8136 119.533 82.1322 119.866C80.8363 120.122 80.4667 121.129 80.5003 122.12C80.5867 124.671 82.7718 127.659 86.1651 129.867C81.7123 129.153 78.8092 132.002 80.9736 134.96C79.1256 134.919 77.3338 134.315 75.8373 133.23C73.9386 134.011 74.1115 136.108 75.4882 137.913C76.865 139.717 79.1749 141.298 81.416 142.818L78.3124 144.123C79.5015 146.043 83.2775 146.914 86.0136 146.987C88.7497 147.061 91.797 146.928 94.3628 148.365C96.7692 149.712 98.0736 152.129 100.783 152.798C102.883 153.316 104.321 152.375 105.362 151.489L109.786 147.722C113.368 149.719 118.327 148.59 117.566 145.951C121.652 147.977 126.858 146.761 126.325 143.905C127.946 146.487 128.793 149.105 128.788 151.52C128.786 152.6 128.628 153.683 129.28 154.839C129.731 155.53 130.335 156.108 131.046 156.526C131.757 156.945 132.554 157.194 133.377 157.253C132.047 158.47 130.771 159.992 131.895 161.856C133.018 163.72 137.752 165.056 138.126 163.418C140.172 165.359 142.534 167.345 145.543 168.544C148.553 169.743 152.304 169.815 153.219 168.186C156.98 171.178 161.194 173.551 165.701 175.217C166.512 174.201 169.329 174.815 171.227 175.837C173.125 176.859 174.732 178.224 176.794 178.986C178.856 179.749 181.533 179.326 180.85 177.924C184.859 180.435 189.235 182.306 193.82 183.467C198.146 184.562 202.479 184.968 206.778 186.297C211.15 187.615 215.183 189.87 218.593 192.907C219.761 193.996 221.21 195.359 222.896 195.465C223.852 195.525 224.476 195.123 225.225 194.895C228.448 193.915 233.461 196.181 237.157 198.397C240.852 200.614 245.14 203.223 249.11 203.18C250.608 203.164 251.861 202.748 253.413 202.843C258.973 203.184 263.54 209.252 269.261 210.102C271.124 210.379 272.847 210.032 274.719 210.601C278.038 211.611 279.374 214.605 282.359 216.245C285.457 217.946 289.747 217.264 289.642 215.087C292.767 216.319 296.07 217.042 299.425 217.228L298.925 214.001C302.656 215.31 306.365 213.659 305.34 211.146C309.32 211.811 312.964 210.991 314.54 209.076C316.115 207.161 315.56 204.226 313.139 201.665C311.709 200.154 309.638 198.698 309.078 197.137C308.675 196.013 309.149 195.053 309.215 194.011C309.36 191.73 307.374 188.937 304.204 186.964C302.828 186.107 301.24 185.388 300.066 184.416C298.892 183.444 298.297 182.057 299.366 181.556C299.932 181.291 300.816 181.338 301.469 181.149C304.117 180.381 301.266 177.121 298.538 175.134L305.9 177.581L310.074 171.079C306.332 172.357 299.049 169.11 298.157 165.768C300.211 167.396 303.707 167.573 305.363 166.6C307.02 165.627 307.338 163.903 307.597 162.261C307.708 161.87 307.717 161.457 307.621 161.063C307.525 160.668 307.329 160.305 307.051 160.008C306.464 159.407 305.382 158.846 305.337 158.248C305.292 157.637 306.384 157.515 306.718 157.031C307.358 156.101 305.165 154.778 303.754 153.694C300.426 151.135 299.819 147.173 295.501 145.701C291.217 144.241 288.835 147.042 287.936 149.469C287.037 151.896 284.403 154.613 280.17 153.001C278.48 152.357 277.226 151.201 276.087 150.118L265.854 140.382C264.522 139.042 263.07 137.825 261.517 136.748C259.274 135.27 256.587 134.202 253.961 133.164L237.081 126.496C236.239 126.108 235.339 125.862 234.417 125.766C233.413 125.734 232.761 126.162 232.036 126.468C228.845 127.818 222.951 126.633 219.381 123.924C218.435 123.206 217.645 122.405 216.605 121.744C213.33 119.659 209.069 119.708 205.181 118.858C198.807 117.466 191.811 113.233 186.501 114.165C184.731 114.475 183.53 115.35 181.847 115.756C180.163 116.162 177.5 115.876 176.049 114.565C175.651 116.303 175.207 118.107 173.516 119.227C171.826 120.347 168.481 120.536 165.792 119.104C164.436 118.152 165.02 116.933 166.046 116.341C167.072 115.749 168.485 115.278 168.471 114.223C168.458 113.177 167.046 112.05 166.079 110.967C165.111 109.883 164.756 108.376 166.251 108.258C165.798 106.834 162.654 105.827 160.95 106.252C159.246 106.677 158.628 107.933 158.034 109.086C157.44 110.239 156.629 111.442 154.753 111.668C151.557 112.054 146.659 109.435 144.214 110.571C143.438 110.932 143.151 111.607 142.595 112.116C140.113 114.388 133.601 112.811 128.413 111.156C128.09 111.701 127.846 112.288 127.688 112.901C129.713 112.79 127.371 110.179 126.248 109.325Z" fill="#61AB43"/>
        <path opacity="0.1" d="M304.239 171.361C303.98 173.003 303.662 174.728 302.006 175.7C301.762 175.839 301.503 175.95 301.234 176.03C302.789 176.547 304.345 177.064 305.9 177.581C307.291 175.414 308.682 173.246 310.074 171.079C308.524 171.608 306.366 171.36 304.307 170.651C304.302 170.889 304.279 171.126 304.239 171.361Z" fill="black"/>
        <path opacity="0.1" d="M302.506 180.193C302.677 179.17 301.457 177.616 299.946 176.27C298.118 176.435 296.291 175.937 294.799 174.868C295.414 177.173 299.069 179.432 302.506 180.193Z" fill="black"/>
        <path opacity="0.1" d="M302.861 186.184C302.755 186.35 302.649 186.516 302.542 186.681C300.088 185.866 297.634 185.05 295.181 184.235C297.908 186.221 300.759 189.482 298.112 190.25C297.459 190.439 296.574 190.392 296.008 190.657C294.939 191.158 295.534 192.545 296.708 193.517C297.882 194.489 299.47 195.207 300.846 196.064C304.016 198.037 306.003 200.831 305.857 203.111C305.791 204.153 305.318 205.113 305.72 206.238C306.28 207.799 308.352 209.255 309.781 210.766C309.918 210.911 310.048 211.059 310.174 211.206C312.084 210.896 313.646 210.163 314.54 209.076C316.115 207.161 315.56 204.226 313.139 201.666C311.709 200.155 309.638 198.699 309.078 197.137C308.675 196.013 309.149 195.053 309.215 194.011C309.361 191.731 307.374 188.937 304.204 186.964C303.771 186.694 303.317 186.439 302.861 186.184Z" fill="black"/>
        <path opacity="0.1" d="M77.7251 140.143C78.7358 139.147 80.577 138.611 82.8071 138.968C80.973 137.823 79.413 136.289 78.2376 134.474C77.3784 134.185 76.5687 133.766 75.8372 133.231C73.9385 134.012 74.1114 136.109 75.4881 137.914C76.1468 138.739 76.8972 139.487 77.7251 140.143Z" fill="black"/>
        <path opacity="0.1" d="M103.572 109.601C104.751 109.596 105.929 109.671 107.097 109.827C110.636 110.279 114.789 110.846 116.452 109.261C116.985 108.753 117.204 108.052 117.996 107.72C119.535 107.075 122.612 108.364 123.538 109.851C124.464 111.339 123.595 112.69 122.001 113.289C121.174 113.599 120.123 113.784 119.77 114.388C119.106 115.525 121.218 117.152 122.89 118.425C123.673 119.038 124.342 119.783 124.869 120.626C124.932 120.503 124.995 120.38 125.055 120.257C130.243 121.911 136.755 123.489 139.237 121.216C139.793 120.707 140.08 120.032 140.857 119.671C143.301 118.535 148.199 121.154 151.395 120.769C153.271 120.543 154.082 119.339 154.676 118.187C155.27 117.034 155.888 115.778 157.592 115.353C159.296 114.927 162.441 115.934 162.893 117.358C161.398 117.477 161.753 118.984 162.721 120.067C163.688 121.15 165.1 122.277 165.114 123.324C165.127 124.379 163.714 124.85 162.688 125.442C161.662 126.034 161.078 127.253 162.434 128.204C165.124 129.637 168.468 129.448 170.159 128.327C171.849 127.207 172.293 125.404 172.691 123.666C174.142 124.977 176.805 125.263 178.489 124.857C180.173 124.451 181.373 123.576 183.144 123.265C188.453 122.333 195.449 126.567 201.823 127.959C205.711 128.808 209.972 128.76 213.247 130.844C214.287 131.506 215.077 132.306 216.023 133.024C219.593 135.734 225.488 136.919 228.678 135.569C229.404 135.262 230.055 134.835 231.059 134.866C231.981 134.962 232.881 135.209 233.723 135.597C239.35 137.82 244.976 140.042 250.603 142.265C253.229 143.302 255.916 144.37 258.159 145.849C259.712 146.926 261.164 148.142 262.496 149.483C265.907 152.728 269.318 155.973 272.729 159.218C273.868 160.302 275.122 161.457 276.812 162.101C281.045 163.713 283.679 160.996 284.578 158.57C285.477 156.143 287.859 153.341 292.143 154.802C296.461 156.273 297.068 160.236 300.397 162.794C301.807 163.879 304.001 165.202 303.36 166.131C303.062 166.563 302.165 166.708 302.005 167.166C303.156 167.307 304.323 167.111 305.363 166.601C307.02 165.628 307.338 163.903 307.597 162.261C307.708 161.871 307.717 161.458 307.621 161.063C307.525 160.668 307.329 160.305 307.051 160.009C306.464 159.407 305.382 158.847 305.337 158.248C305.292 157.638 306.384 157.515 306.717 157.031C307.358 156.102 305.165 154.778 303.754 153.694C300.426 151.136 299.819 147.173 295.501 145.701C291.217 144.241 288.835 147.043 287.936 149.469C287.037 151.896 284.403 154.613 280.17 153.001C278.48 152.357 277.226 151.202 276.087 150.118C272.676 146.873 269.265 143.628 265.854 140.383C264.522 139.042 263.07 137.826 261.517 136.748C259.274 135.27 256.587 134.202 253.961 133.165C248.334 130.942 242.708 128.719 237.081 126.497C236.239 126.109 235.339 125.862 234.417 125.766C233.413 125.735 232.761 126.162 232.036 126.469C228.845 127.819 222.951 126.633 219.381 123.924C218.435 123.206 217.644 122.406 216.605 121.744C213.33 119.66 209.069 119.708 205.181 118.859C198.807 117.467 191.811 113.233 186.501 114.165C184.731 114.476 183.53 115.351 181.847 115.757C180.163 116.163 177.5 115.877 176.049 114.566C175.651 116.304 175.207 118.107 173.517 119.227C171.826 120.347 168.481 120.536 165.792 119.104C164.436 118.153 165.02 116.934 166.046 116.342C167.072 115.749 168.485 115.279 168.471 114.224C168.458 113.177 167.046 112.05 166.079 110.967C165.111 109.884 164.756 108.377 166.251 108.258C165.798 106.834 162.654 105.827 160.95 106.252C159.246 106.678 158.628 107.934 158.034 109.086C157.44 110.239 156.629 111.443 154.753 111.669C151.557 112.054 146.659 109.435 144.214 110.571C143.438 110.932 143.151 111.607 142.595 112.116C140.113 114.389 133.601 112.811 128.413 111.157C128.353 111.28 128.29 111.403 128.227 111.526C127.7 110.683 127.031 109.938 126.248 109.325C124.576 108.052 122.464 106.425 123.128 105.288C123.481 104.684 124.532 104.499 125.359 104.189C126.953 103.59 127.822 102.239 126.896 100.751C125.97 99.2634 122.893 97.9748 121.354 98.6197C120.562 98.9514 120.343 99.6532 119.81 100.161C118.147 101.746 113.994 101.179 110.455 100.727C106.916 100.275 102.751 100.327 102.319 102.442C101.855 104.713 106.023 108.421 103.572 109.601Z" fill="black"/>
        <path opacity="0.1" d="M86.1651 129.867C85.2072 129.701 84.2265 129.72 83.276 129.923C83.7567 130.125 84.2314 130.336 84.6877 130.538C90.0115 132.898 97.3275 134.251 99.3166 131.467C100.32 130.062 99.5702 128.05 98.8134 126.176C98.5091 125.422 98.2049 124.669 97.9007 123.916C94.8988 123.837 91.1371 122.808 88.0456 121.438C86.096 120.574 83.8136 119.534 82.1321 119.866C80.8363 120.122 80.4668 121.129 80.5003 122.12C80.5866 124.671 82.7718 127.66 86.1651 129.867Z" fill="black"/>
        <path d="M202.434 156.68C232.422 167.745 262.649 160.68 269.948 140.899C277.247 121.119 258.854 96.1133 228.866 85.048C198.878 73.9828 168.652 81.048 161.353 100.829C154.054 120.609 172.447 145.615 202.434 156.68Z" fill="#EA565C"/>
        <path opacity="0.2" d="M198.124 111.52C198.124 111.52 172.574 104.969 183.685 97.1491C194.796 89.329 205.181 89.0504 208.457 93.5475C211.732 98.0445 210.606 106.671 209.882 106.404C209.158 106.137 200.929 96.1134 195.574 99.4809C190.219 102.848 198.124 111.52 198.124 111.52Z" fill="white"/>
        <path opacity="0.2" d="M219.073 120.415C219.073 120.415 234.196 142.02 220.666 140.716C207.137 139.413 199.074 132.863 199.519 127.319C199.963 121.775 206.441 115.965 206.816 116.639C207.191 117.313 206.904 130.274 213.163 131.207C219.422 132.139 219.073 120.415 219.073 120.415Z" fill="white"/>
        <path opacity="0.2" d="M227.08 113.327C227.08 113.327 237.79 89.2404 243.657 101.497C249.523 113.755 248.071 124.036 243.09 126.513C238.109 128.991 229.787 126.439 230.17 125.77C230.554 125.101 241.81 118.666 239.379 112.826C236.948 106.985 227.08 113.327 227.08 113.327Z" fill="white"/>
        <path d="M137.983 129.61C167.971 140.675 198.198 133.61 205.497 113.829C212.796 94.0484 194.403 69.0429 164.415 57.9777C134.427 46.9125 104.201 53.9777 96.9019 73.7583C89.603 93.5389 107.996 118.544 137.983 129.61Z" fill="#EA565C"/>
        <path opacity="0.2" d="M133.673 84.4492C133.673 84.4492 108.123 77.899 119.234 70.0788C130.345 62.2586 140.73 61.9801 144.006 66.4771C147.281 70.9742 146.155 79.6011 145.431 79.334C144.707 79.0669 136.479 69.0432 131.123 72.4106C125.768 75.778 133.673 84.4492 133.673 84.4492Z" fill="white"/>
        <path opacity="0.2" d="M154.623 93.3451C154.623 93.3451 169.745 114.949 156.216 113.646C142.687 112.343 134.623 105.793 135.068 100.249C135.512 94.7046 141.99 88.895 142.365 89.569C142.74 90.243 142.453 103.203 148.712 104.136C154.971 105.069 154.623 93.3451 154.623 93.3451Z" fill="white"/>
        <path opacity="0.2" d="M162.629 86.257C162.629 86.257 173.34 62.1701 179.206 74.4272C185.072 86.6842 183.62 96.9656 178.639 99.4431C173.658 101.921 165.336 99.3688 165.72 98.6999C166.104 98.031 177.36 91.5958 174.929 85.7553C172.497 79.9147 162.629 86.257 162.629 86.257Z" fill="white"/>
        <path opacity="0.1" d="M190.703 73.7397C200.106 84.6738 203.993 97.2856 199.935 108.283C192.636 128.064 162.409 135.129 132.421 124.064C122.146 120.272 113.233 114.844 106.248 108.55C113.757 117.282 124.783 124.945 138.098 129.858C168.085 140.923 198.312 133.858 205.611 114.077C210.409 101.074 204.104 85.8141 190.703 73.7397Z" fill="black"/>
        <path opacity="0.1" d="M255.288 100.448C264.69 111.382 268.577 123.994 264.519 134.991C257.22 154.772 226.994 161.837 197.006 150.772C186.731 146.98 177.817 141.552 170.832 135.258C178.341 143.99 189.367 151.653 202.682 156.566C232.67 167.631 262.897 160.566 270.195 140.785C274.993 127.782 268.689 112.522 255.288 100.448Z" fill="black"/>
        <path d="M120.733 74.7565C120.733 74.7565 185.851 42.0616 292.629 104.891C377.037 154.558 292.431 155.216 253.278 153.312C241.919 152.759 230.676 150.765 219.818 147.38C179.492 134.815 79.2783 99.905 120.733 74.7565Z" fill="#714B4F"/>
        <path opacity="0.1" d="M257.416 142.097C246.057 141.544 234.814 139.551 223.957 136.166C191.288 125.986 119.321 101.143 115.205 78.7046C90.4467 103.382 181.883 135.157 219.952 147.019C230.809 150.404 242.053 152.397 253.411 152.951C282.11 154.346 335.226 154.364 328.306 134.716C315.552 143.425 279.352 143.164 257.416 142.097Z" fill="black"/>
        <path opacity="0.1" d="M231.206 82.4316L234.664 112.069" stroke="black" stroke-width="2" stroke-miterlimit="10"/>
        <path opacity="0.1" d="M188.774 77.0508L191.891 102.041" stroke="black" stroke-width="2" stroke-miterlimit="10"/>
        <path opacity="0.1" d="M254.011 90.8467L261.813 122.087" stroke="black" stroke-width="2" stroke-miterlimit="10"/>
        <path opacity="0.1" d="M180.231 100.205L299.595 127.808" stroke="black" stroke-width="2" stroke-miterlimit="10"/>
        <path opacity="0.1" d="M300.057 113.181L303.882 127.334" stroke="black" stroke-width="2" stroke-miterlimit="10"/>
        <path opacity="0.1" d="M163.127 77.4521L164.324 89.8137" stroke="black" stroke-width="2" stroke-miterlimit="10"/>
        <path d="M192.689 49.7452C192.689 49.7452 296.991 87.6968 298.293 87.1076C299.596 86.5185 321.752 94.1271 323.793 101.834C325.833 109.541 326.224 112.894 320.144 111.721C314.065 110.548 89.7795 137.446 89.7795 137.446C89.7795 137.446 78.9237 134.51 87.9998 126.091C97.076 117.672 192.689 49.7452 192.689 49.7452Z" fill="#F6C964"/>
        <path d="M220.52 108.925C219.082 112.822 196.781 115.374 173.591 106.817C150.4 98.2601 135.102 81.8336 136.54 77.9374C137.978 74.0412 157.342 79.4476 180.533 88.0047C203.723 96.5619 221.958 105.029 220.52 108.925Z" fill="#61AB43"/>
        <path d="M175.994 100.305C199.184 108.863 219.149 112.641 220.587 108.745C222.024 104.849 204.39 94.7533 181.2 86.1962C158.009 77.6391 138.044 73.8606 136.607 77.7568C135.169 81.653 152.803 91.7484 175.994 100.305Z" fill="#61AB43"/>
        <path d="M273.601 121.113C272.163 125.009 249.862 127.562 226.671 119.005C203.481 110.448 188.183 94.0211 189.621 90.1249C191.058 86.2287 210.423 91.6351 233.613 100.192C256.803 108.749 275.038 117.217 273.601 121.113Z" fill="#61AB43"/>
        <path d="M229.074 112.493C252.265 121.05 272.23 124.828 273.667 120.932C275.105 117.036 257.471 106.941 234.28 98.3837C211.09 89.8266 191.125 86.0481 189.687 89.9443C188.25 93.8405 205.884 103.936 229.074 112.493Z" fill="#61AB43"/>
        <path d="M326.681 133.3C325.243 137.197 302.942 139.749 279.752 131.192C256.561 122.635 241.263 106.209 242.701 102.312C244.139 98.4162 263.503 103.823 286.694 112.38C309.884 120.937 328.119 129.404 326.681 133.3Z" fill="#61AB43"/>
        <path d="M282.155 124.68C305.345 133.238 325.31 137.016 326.748 133.12C328.185 129.224 310.551 119.128 287.361 110.571C264.17 102.014 244.205 98.2356 242.768 102.132C241.33 106.028 258.964 116.123 282.155 124.68Z" fill="#61AB43"/>
        <path d="M129.31 62.7492C129.31 62.7492 113.077 53.567 127.097 42.7785C141.116 31.99 149.899 17.3381 155.053 15.2424C160.815 12.8994 275.236 -23.2375 316.389 78.6545C320.714 89.5456 323.246 101.064 323.887 112.763C324.021 114.979 324.314 117.032 324.884 118.269C326.659 122.116 326.107 131.033 319.404 133.121C312.702 135.208 153.104 94.1034 129.31 62.7492Z" fill="#3F3D56"/>
        <path d="M231.787 34.2076C230.45 34.5546 229.041 34.5096 227.728 34.0781C225.732 33.3415 224.313 32.2052 224.558 31.5401C224.803 30.8751 226.621 30.9331 228.617 31.6697C229.895 32.1942 230.996 33.0752 231.787 34.2076Z" fill="#F2F2F2"/>
        <path d="M205.685 15.9108C204.347 16.2577 202.938 16.2127 201.626 15.7812C199.629 15.0446 198.21 13.9083 198.455 13.2432C198.701 12.5782 200.518 12.6362 202.514 13.3728C203.793 13.8973 204.893 14.7784 205.685 15.9108Z" fill="#F2F2F2"/>
        <path d="M280.137 56.0103C278.757 55.9423 277.426 55.4789 276.302 54.6753C274.616 53.3766 273.601 51.8687 274.034 51.3073C274.466 50.7459 276.184 51.3436 277.869 52.6423C278.933 53.5243 279.72 54.6935 280.137 56.0103Z" fill="#F2F2F2"/>
        <path d="M234.275 15.8287C232.895 15.7607 231.563 15.2972 230.439 14.4937C228.754 13.195 227.739 11.687 228.171 11.1256C228.604 10.5642 230.322 11.1619 232.007 12.4606C233.071 13.3427 233.858 14.5119 234.275 15.8287Z" fill="#F2F2F2"/>
        <path d="M289.844 44.5425C288.464 44.4745 287.133 44.0111 286.009 43.2075C284.323 41.9088 283.308 40.4009 283.741 39.8395C284.174 39.2781 285.891 39.8758 287.576 41.1745C288.64 42.0565 289.427 43.2257 289.844 44.5425Z" fill="#F2F2F2"/>
        <path d="M278.358 39.0787C277.021 39.4257 275.612 39.3807 274.299 38.9492C272.303 38.2125 270.884 37.0763 271.129 36.4112C271.375 35.7462 273.192 35.8042 275.188 36.5408C276.466 37.0653 277.567 37.9463 278.358 39.0787Z" fill="#F2F2F2"/>
        <path d="M246.485 19.109C245.148 19.456 243.738 19.411 242.426 18.9794C240.43 18.2428 239.01 17.1065 239.256 16.4415C239.501 15.7764 241.318 15.8344 243.314 16.5711C244.593 17.0956 245.693 17.9766 246.485 19.109Z" fill="#F2F2F2"/>
        <path d="M272.992 28.8903C271.655 29.2372 270.246 29.1922 268.933 28.7607C266.937 28.0241 265.517 26.8878 265.763 26.2227C266.008 25.5577 267.825 25.6157 269.822 26.3523C271.1 26.8768 272.2 27.7579 272.992 28.8903Z" fill="#F2F2F2"/>
        <path d="M257.175 40.8395C255.838 41.1864 254.429 41.1415 253.116 40.7099C251.12 39.9733 249.7 38.837 249.946 38.172C250.191 37.5069 252.008 37.5649 254.005 38.3015C255.283 38.8261 256.384 39.7071 257.175 40.8395Z" fill="#F2F2F2"/>
        <path d="M229.009 27.2506C229.775 26.1017 230.856 25.1976 232.123 24.6462C234.102 23.8675 235.918 23.7711 236.178 24.4308C236.438 25.0905 235.044 26.2565 233.064 27.0352C231.761 27.4944 230.353 27.5692 229.009 27.2506Z" fill="#F2F2F2"/>
        <path d="M212.565 16.1666C213.331 15.0177 214.412 14.1136 215.679 13.5622C217.659 12.7835 219.474 12.6871 219.734 13.3468C219.994 14.0065 218.6 15.1726 216.62 15.9512C215.317 16.4104 213.91 16.4852 212.565 16.1666Z" fill="#F2F2F2"/>
        <path d="M173.241 26.2818C174.007 25.1329 175.088 24.2289 176.354 23.6774C178.334 22.8988 180.15 22.8024 180.41 23.4621C180.67 24.1218 179.275 25.2878 177.296 26.0664C175.993 26.5256 174.585 26.6004 173.241 26.2818Z" fill="#F2F2F2"/>
        <path d="M251.608 27.8365C252.374 26.6876 253.455 25.7836 254.722 25.2321C256.701 24.4535 258.517 24.357 258.777 25.0168C259.037 25.6765 257.643 26.8425 255.663 27.6211C254.36 28.0803 252.952 28.1551 251.608 27.8365Z" fill="#F2F2F2"/>
        <path d="M239.047 39.6187C239.813 38.4699 240.894 37.5658 242.161 37.0143C244.14 36.2357 245.956 36.1393 246.216 36.799C246.476 37.4587 245.081 38.6247 243.102 39.4034C241.799 39.8626 240.391 39.9373 239.047 39.6187Z" fill="#F2F2F2"/>
        <path d="M314.41 246.141C314.41 246.141 308.303 245.76 304.337 248.043C304.337 248.043 298.577 248.416 295.755 246.75C292.934 245.084 285.407 248.551 289.198 251.823C292.988 255.095 318.311 269.434 319.367 268.263C320.424 267.092 325.595 253.078 325.595 253.078L314.41 246.141Z" fill="#575A89"/>
        <path d="M358.476 259.719C358.476 259.719 352.393 260.387 348.876 263.314C348.876 263.314 343.264 264.664 340.2 263.505C337.135 262.345 330.312 267.046 334.606 269.623C338.9 272.2 366.298 282.006 367.14 280.671C367.981 279.337 370.681 264.645 370.681 264.645L358.476 259.719Z" fill="#575A89"/>
        <path d="M392.953 60.7962C399.787 63.3176 407.369 59.8254 409.889 52.9962C412.409 46.1669 408.912 38.5867 402.079 36.0653C395.246 33.544 387.664 37.0362 385.144 43.8654C382.624 50.6947 386.12 58.2749 392.953 60.7962Z" fill="#FFB9B9"/>
        <path d="M406.791 54.1943C406.791 54.1943 404.718 64.0444 406.787 66.0566C408.196 67.5388 409.363 69.2337 410.245 71.0787L402.154 71.8399L388.986 66.0444C388.986 66.0444 392.317 60.4048 391.507 56.672C390.698 52.9392 406.791 54.1943 406.791 54.1943Z" fill="#FFB9B9"/>
        <path d="M416.036 107.871C416.036 107.871 416.378 126.416 404.275 139.746C392.171 153.075 388.509 154.534 388.509 154.534L394.189 133.215L397.143 132.025C397.143 132.025 400.79 126.267 401.067 122.163C401.344 118.059 407.252 107.127 407.252 107.127L416.036 107.871Z" fill="#FFB9B9"/>
        <path d="M355.768 125.594C355.768 125.594 341.102 140.787 338.682 149.885C336.263 158.983 328.898 198.412 328.898 198.412C328.898 198.412 310.431 245.921 312.905 246.834C315.38 247.747 325.58 256.506 326.695 253.484C327.81 250.461 357.053 178.83 357.053 178.83C357.053 178.83 359.314 215.879 359.776 218.86C360.238 221.84 354.739 263.832 357.764 264.948C360.788 266.064 371.15 266.765 371.035 264.537C370.92 262.309 377.39 215.993 376.221 203.074C375.053 190.155 391.464 149.068 391.464 149.068L389.763 126.586L355.768 125.594Z" fill="#3F3D56"/>
        <path d="M395.883 41.4283C395.883 41.4283 388.387 38.0381 388.547 35.9116C388.707 33.7852 388.216 31.7307 388.766 31.9336C389.316 32.1365 390.097 30.864 390.097 30.864C390.097 30.864 390.749 30.7921 390.922 31.1684C391.096 31.5446 392.182 29.4478 392.182 29.4478C392.182 29.4478 392.761 28.7248 392.833 29.3759C392.905 30.0269 393.007 29.7521 393.586 29.0292C394.165 28.3063 395.743 28.264 395.743 28.264C395.743 28.264 400.865 30.4663 402.095 29.6716C403.326 28.8768 412.37 33.1505 413.787 35.2346C415.205 37.3187 421.903 45.4099 419.008 49.0245C416.112 52.639 407.817 59.8809 407.31 61.2548C406.803 62.6287 404.98 61.6438 404.937 60.0669C404.894 58.4901 401.103 55.2181 401.407 54.3938C401.712 53.5694 402.076 44.9623 400.499 45.0046C398.921 45.0469 395.649 48.8348 395.403 47.8076C395.158 46.7803 395.883 41.4283 395.883 41.4283Z" fill="#3F3D56"/>
        <path d="M419.934 93.0745C419.934 93.0745 414.745 72.4277 411.75 70.3859C408.755 68.3441 402.143 63.4066 402.143 63.4066C402.143 63.4066 394.314 61.7665 391.709 62.0541C389.103 62.3416 380.145 61.2215 378.654 64.4175C377.162 67.6135 367.976 100.127 365.486 102.643C362.996 105.158 347.675 132.286 350.078 132.548C352.48 132.81 353.467 125.057 363.191 128.333C372.916 131.609 380.269 127.766 381.308 135.955C382.348 144.143 390.594 153.118 390.594 153.118C391.667 150.997 392.846 148.931 394.127 146.929C396.372 143.386 396.795 132.927 396.795 132.927C396.795 132.927 405.08 111.321 407.092 109.253C409.104 107.186 419.934 93.0745 419.934 93.0745Z" fill="#FEE715"/>
        <path d="M416.013 91.003L419.934 93.0744C419.934 93.0744 417.631 98.4687 418.123 100.523C418.614 102.578 417.396 111.806 416.194 111.675C414.993 111.544 404.487 109.541 404.487 109.541L408.601 96.6976L416.013 91.003Z" fill="#FEE715"/>
        <path d="M367.822 84.46C367.822 84.46 358.482 101.307 356.296 102.998C354.11 104.689 335.88 132.929 335.88 132.929C335.88 132.929 318.78 144.467 324.381 146.222C329.981 147.976 340.973 136.057 340.973 136.057C340.973 136.057 369.478 111.296 370.694 107.998C371.911 104.701 382.119 89.7355 382.119 89.7355L367.822 84.46Z" fill="#FFB9B9"/>
        <path d="M384.718 63.2205L379.059 63.3179C379.059 63.3179 364.421 83.5171 365.086 85.9479C365.751 88.3787 383.262 91.7179 383.841 90.995C384.42 90.2721 389.942 65.1481 384.718 63.2205Z" fill="#FEE715"/>
        <path d="M-17.6573 84.1719C-27.5363 110.945 -18.7248 138.81 2.04364 146.474L-17.6573 84.1719Z" fill="#46455B"/>
        <path d="M2.0435 146.474C12.0336 119.4 38.8714 104.412 62.0478 112.964L2.0435 146.474Z" fill="#FEE715"/>
        <path d="M-4.93909 91.6221C-14.3232 117.054 -11.2 141.587 2.04361 146.474L-4.93909 91.6221Z" fill="#FEE715"/>
        <path d="M2.04363 146.474C14.8087 111.879 46.8148 91.8843 73.603 101.769L2.04363 146.474Z" fill="#46455B"/>
        <path d="M-5.98711 143.899C-5.98711 143.899 -0.597971 145.701 1.42966 145.151C3.45728 144.601 10.5517 145.668 10.2737 147.648C9.99576 149.628 14.9178 159.719 8.88391 157.548C2.85004 155.376 -4.74896 151.453 -5.99174 149.886C-7.23452 148.319 -5.98711 143.899 -5.98711 143.899Z" fill="#A8A8A8"/>
        <path opacity="0.2" d="M9.22675 156.949C3.19287 154.777 -4.40611 150.854 -5.64887 149.287C-6.5953 148.093 -6.0978 145.248 -5.80661 143.957C-5.92111 143.92 -5.98705 143.899 -5.98705 143.899C-5.98705 143.899 -7.23443 148.318 -5.99167 149.885C-4.74891 151.453 2.85011 155.376 8.88396 157.547C10.6257 158.174 11.4534 157.778 11.7579 156.851C11.3128 157.315 10.5232 157.415 9.22675 156.949Z" fill="black"/>
    </g>
    <defs>
        <clipPath id="clip0">
            <rect width="524" height="286" fill="white" transform="translate(6.64691 -116.825) rotate(20.2537)"/>
        </clipPath>
    </defs>
</svg>
