<svg width="440" height="285" viewBox="0 0 440 285" fill="none" xmlns="http://www.w3.org/2000/svg">
    <g clip-path="url(#clip0)">
        <path d="M275.859 208.88C312.036 221.747 347.965 235.281 383.647 249.483C386.716 250.705 389.894 251.992 392.328 253.822C394.761 255.651 396.218 258.188 394.846 259.602C380.632 254.829 366.51 249.764 352.479 244.406C348.857 244.776 344.653 245.796 345.792 248.517C346.579 250.4 349.646 252.006 352.462 253.049C357.561 254.937 362.992 255.99 367.837 258.336C372.682 260.681 376.722 265.174 374.237 267.373C372.351 269.044 367.729 268.51 363.801 267.269C359.872 266.029 356.061 264.188 352.106 263.289C348.347 262.434 344.791 262.506 341.122 262.118C335.333 261.506 329.312 259.755 323.409 257.977C278.079 244.326 233.388 227.811 188.804 211.332C170.755 204.66 152.466 197.881 136.005 188.815C126.622 183.646 117.96 177.801 108.344 172.878C96.8577 166.998 84.363 162.611 72.0553 158.118C50.4487 150.232 29.0417 141.861 7.83431 133.005C6.25615 132.346 4.37283 131.391 4.261 130.362C4.1305 129.161 6.4717 129.125 8.35312 129.359C19.0052 130.71 29.5335 132.905 39.8385 135.922C45.0603 137.443 50.3724 139.196 55.4882 139.746C60.6039 140.296 65.6049 139.335 66.6237 136.439C66.9345 135.555 66.9104 134.479 67.9305 133.973C69.285 133.302 71.7693 133.95 73.8789 134.601C97.2652 141.815 120.509 149.801 143.462 158.508C151.537 161.571 159.611 164.736 167.857 167.158C174.612 169.144 181.407 170.608 188.187 172.235C197.287 174.418 237.208 183.064 241.14 189.452C244.083 194.234 235.269 191.779 245.893 197.208C255.143 201.934 266.001 205.374 275.859 208.88Z" fill="#F2F2F2"/>
        <path d="M141.111 142.278C141.111 142.278 118.006 163.766 129.374 167.96C140.743 172.155 283.776 225.579 290.48 219.662C295.177 215.516 300.437 196.529 303.165 185.532C303.696 183.394 303.387 181.135 302.302 179.218C301.217 177.3 299.438 175.871 297.332 175.224C265.722 165.502 147.651 129.13 148.446 128.525C150.017 127.33 149.15 127.494 149.15 127.494C149.15 127.494 139.257 140.303 141.111 142.278Z" fill="#3F3D56"/>
        <path opacity="0.1" d="M303.449 185.636C303.98 183.499 303.671 181.239 302.586 179.322C301.501 177.405 299.723 175.976 297.616 175.329C266.006 165.606 147.935 129.235 148.73 128.63C150.302 127.435 149.434 127.599 149.434 127.599C149.434 127.599 147.226 130.458 145.091 133.683C145.213 133.715 145.26 133.858 144.628 134.391C144.537 134.531 144.448 134.671 144.358 134.811C148.825 136.979 262.229 171.913 293.111 181.412C295.218 182.059 296.996 183.488 298.081 185.405C299.166 187.322 299.475 189.582 298.944 191.719C296.916 199.896 293.488 212.487 289.932 220.113C290.235 220.07 290.521 219.95 290.764 219.766C295.461 215.621 300.721 196.634 303.449 185.636Z" fill="black"/>
        <path d="M171.641 108.563C170.328 107.563 168.67 106.286 169.191 105.393C169.468 104.919 170.293 104.774 170.943 104.53C172.194 104.06 172.876 102.999 172.149 101.831C171.422 100.663 169.006 99.6514 167.798 100.158C167.176 100.418 167.004 100.969 166.586 101.368C165.28 102.612 162.02 102.167 159.241 101.812C156.462 101.458 153.192 101.498 152.853 103.159C152.482 104.97 155.872 107.949 153.743 108.825C152.971 109.142 151.649 108.99 151.167 109.502C150.828 109.861 151.033 110.43 151.243 110.95L152.737 114.649C153.331 116.12 153.92 117.7 153.132 118.803C151.57 120.989 145.826 119.927 141.646 118.074C140.115 117.395 138.323 116.579 137.003 116.839C135.986 117.04 135.695 117.831 135.722 118.61C135.789 120.613 137.505 122.959 140.169 124.692C136.673 124.132 134.394 126.368 136.093 128.691C134.642 128.658 133.235 128.184 132.06 127.332C130.57 127.946 130.706 129.592 131.786 131.009C132.867 132.426 134.681 133.667 136.441 134.86L134.004 135.885C134.937 137.392 137.902 138.076 140.05 138.134C142.199 138.192 144.591 138.088 146.606 139.216C148.495 140.274 149.519 142.171 151.647 142.696C153.296 143.103 154.425 142.364 155.242 141.668L158.715 138.711C161.528 140.279 165.421 139.393 164.824 137.32C168.032 138.911 172.12 137.956 171.701 135.714C172.974 137.741 173.639 139.797 173.635 141.693C173.634 142.541 173.509 143.391 174.021 144.299C174.375 144.842 174.85 145.295 175.408 145.624C175.966 145.952 176.592 146.148 177.238 146.194C176.193 147.15 175.192 148.345 176.074 149.808C176.956 151.272 180.673 152.321 180.966 151.034C182.573 152.559 184.427 154.118 186.79 155.06C189.153 156.001 192.099 156.057 192.817 154.779C195.77 157.127 199.078 158.991 202.618 160.299C203.254 159.501 205.466 159.983 206.956 160.785C208.446 161.588 209.708 162.66 211.327 163.258C212.946 163.857 215.048 163.525 214.512 162.424C217.659 164.396 221.095 165.864 224.695 166.777C228.092 167.636 231.494 167.955 234.869 168.998C238.302 170.033 241.468 171.804 244.146 174.188C245.063 175.043 246.201 176.113 247.524 176.196C248.275 176.243 248.765 175.928 249.353 175.749C251.883 174.979 255.819 176.758 258.721 178.499C261.623 180.239 264.989 182.287 268.106 182.254C269.282 182.241 270.266 181.914 271.485 181.989C275.85 182.257 279.436 187.021 283.928 187.689C285.391 187.906 286.743 187.634 288.213 188.081C290.819 188.874 291.868 191.225 294.212 192.512C296.644 193.848 300.012 193.312 299.93 191.602C302.384 192.57 304.977 193.138 307.611 193.284L307.218 190.75C310.148 191.778 313.06 190.482 312.255 188.509C315.38 189.03 318.242 188.386 319.478 186.883C320.715 185.379 320.279 183.075 318.378 181.065C317.256 179.878 315.63 178.735 315.19 177.509C314.874 176.626 315.246 175.873 315.298 175.055C315.412 173.264 313.852 171.071 311.363 169.522C310.283 168.849 309.036 168.285 308.114 167.521C307.193 166.758 306.725 165.669 307.565 165.276C308.009 165.068 308.704 165.105 309.216 164.956C311.295 164.353 309.057 161.793 306.915 160.234L312.695 162.154L315.972 157.05C313.034 158.053 307.316 155.504 306.616 152.879C308.228 154.158 310.973 154.297 312.274 153.533C313.575 152.769 313.824 151.415 314.027 150.126C314.115 149.819 314.121 149.495 314.046 149.185C313.971 148.875 313.817 148.59 313.599 148.357C313.138 147.885 312.288 147.445 312.253 146.975C312.218 146.496 313.075 146.4 313.337 146.02C313.84 145.29 312.118 144.251 311.01 143.4C308.397 141.391 307.921 138.28 304.53 137.124C301.166 135.977 299.296 138.177 298.591 140.083C297.885 141.988 295.816 144.121 292.493 142.855C291.166 142.35 290.181 141.443 289.287 140.592L281.252 132.948C280.207 131.895 279.067 130.94 277.848 130.095C276.086 128.934 273.977 128.095 271.915 127.281L258.661 122.046C258 121.741 257.294 121.547 256.57 121.472C255.781 121.447 255.27 121.783 254.701 122.024C252.195 123.083 247.567 122.153 244.765 120.026C244.021 119.462 243.401 118.833 242.585 118.314C240.013 116.677 236.668 116.715 233.615 116.048C228.611 114.955 223.117 111.631 218.949 112.363C217.559 112.607 216.616 113.294 215.294 113.613C213.972 113.932 211.881 113.707 210.742 112.678C210.429 114.042 210.081 115.458 208.754 116.338C207.427 117.217 204.8 117.366 202.689 116.241C201.624 115.494 202.083 114.537 202.888 114.072C203.694 113.607 204.803 113.237 204.792 112.409C204.782 111.587 203.673 110.703 202.914 109.852C202.154 109.002 201.875 107.818 203.049 107.725C202.694 106.607 200.225 105.817 198.887 106.151C197.549 106.484 197.064 107.471 196.598 108.376C196.131 109.281 195.494 110.226 194.021 110.403C191.512 110.706 187.667 108.649 185.747 109.541C185.137 109.825 184.912 110.355 184.475 110.755C182.527 112.539 177.414 111.3 173.34 110.001C173.087 110.429 172.895 110.89 172.772 111.371C174.361 111.284 172.522 109.234 171.641 108.563Z" fill="#61AB43"/>
        <path opacity="0.1" d="M311.391 157.271C311.187 158.56 310.938 159.914 309.637 160.678C309.446 160.787 309.243 160.874 309.032 160.937C310.253 161.343 311.474 161.749 312.695 162.155C313.787 160.453 314.88 158.751 315.972 157.05C314.755 157.465 313.061 157.27 311.444 156.714C311.44 156.9 311.422 157.087 311.391 157.271V157.271Z" fill="black"/>
        <path opacity="0.1" d="M310.03 164.205C310.165 163.402 309.207 162.182 308.02 161.125C306.585 161.254 305.151 160.863 303.979 160.024C304.462 161.834 307.332 163.607 310.03 164.205Z" fill="black"/>
        <path opacity="0.1" d="M310.309 168.909C310.226 169.039 310.142 169.169 310.059 169.299C308.132 168.659 306.205 168.018 304.279 167.378C306.42 168.938 308.659 171.498 306.58 172.101C306.067 172.249 305.373 172.212 304.928 172.42C304.089 172.814 304.556 173.903 305.478 174.666C306.4 175.429 307.646 175.993 308.727 176.666C311.216 178.215 312.776 180.409 312.661 182.199C312.609 183.017 312.238 183.771 312.554 184.654C312.993 185.879 314.62 187.023 315.742 188.209C315.85 188.323 315.952 188.439 316.05 188.555C317.55 188.311 318.776 187.736 319.478 186.882C320.715 185.379 320.279 183.074 318.378 181.064C317.256 179.878 315.63 178.734 315.19 177.509C314.874 176.626 315.246 175.872 315.298 175.054C315.412 173.264 313.852 171.07 311.364 169.521C311.023 169.309 310.667 169.108 310.309 168.909Z" fill="black"/>
        <path opacity="0.1" d="M133.543 132.759C134.336 131.977 135.782 131.556 137.533 131.837C136.093 130.938 134.868 129.733 133.945 128.309C133.271 128.082 132.635 127.753 132.06 127.333C130.57 127.946 130.705 129.592 131.786 131.009C132.303 131.657 132.893 132.244 133.543 132.759V132.759Z" fill="black"/>
        <path opacity="0.1" d="M153.837 108.779C154.762 108.775 155.687 108.835 156.604 108.957C159.383 109.312 162.644 109.757 163.95 108.513C164.368 108.114 164.54 107.563 165.161 107.302C166.37 106.796 168.786 107.808 169.513 108.976C170.24 110.144 169.558 111.205 168.306 111.675C167.657 111.918 166.831 112.064 166.554 112.538C166.033 113.431 167.691 114.708 169.004 115.708C169.619 116.189 170.144 116.774 170.558 117.436C170.607 117.339 170.657 117.242 170.704 117.146C174.777 118.445 179.89 119.683 181.839 117.899C182.275 117.499 182.501 116.969 183.111 116.686C185.03 115.794 188.875 117.85 191.385 117.548C192.858 117.37 193.495 116.425 193.961 115.52C194.428 114.615 194.913 113.629 196.251 113.295C197.588 112.961 200.057 113.752 200.413 114.87C199.239 114.963 199.518 116.146 200.277 116.997C201.037 117.847 202.146 118.732 202.156 119.554C202.167 120.382 201.058 120.752 200.252 121.217C199.446 121.682 198.987 122.639 200.052 123.386C202.164 124.51 204.79 124.362 206.117 123.482C207.444 122.603 207.793 121.187 208.106 119.822C209.245 120.852 211.335 121.076 212.658 120.757C213.98 120.439 214.923 119.752 216.312 119.508C220.481 118.776 225.974 122.1 230.979 123.193C234.031 123.86 237.377 123.822 239.948 125.458C240.764 125.978 241.385 126.606 242.128 127.17C244.931 129.297 249.559 130.228 252.064 129.168C252.634 128.927 253.145 128.592 253.933 128.616C254.657 128.692 255.364 128.885 256.025 129.19C260.443 130.935 264.86 132.68 269.278 134.425C271.34 135.24 273.45 136.079 275.211 137.239C276.431 138.085 277.57 139.04 278.616 140.093C281.294 142.641 283.972 145.189 286.651 147.736C287.545 148.587 288.53 149.495 289.857 150C293.18 151.266 295.248 149.133 295.954 147.227C296.66 145.322 298.53 143.122 301.894 144.269C305.284 145.424 305.761 148.535 308.374 150.544C309.482 151.396 311.204 152.434 310.7 153.164C310.467 153.503 309.763 153.617 309.637 153.976C310.54 154.088 311.457 153.933 312.274 153.533C313.575 152.769 313.824 151.415 314.027 150.125C314.115 149.819 314.121 149.495 314.046 149.185C313.971 148.875 313.817 148.59 313.599 148.357C313.138 147.885 312.288 147.445 312.253 146.975C312.218 146.495 313.075 146.399 313.337 146.019C313.84 145.289 312.118 144.251 311.01 143.399C308.397 141.39 307.921 138.279 304.53 137.124C301.166 135.977 299.296 138.177 298.591 140.082C297.885 141.988 295.816 144.121 292.493 142.855C291.166 142.35 290.181 141.442 289.287 140.591C286.609 138.044 283.931 135.496 281.253 132.948C280.207 131.895 279.067 130.94 277.848 130.094C276.086 128.934 273.977 128.095 271.915 127.28C267.497 125.535 263.079 123.79 258.661 122.045C258 121.74 257.294 121.547 256.57 121.471C255.781 121.447 255.27 121.782 254.701 122.023C252.195 123.083 247.567 122.152 244.764 120.025C244.021 119.461 243.401 118.833 242.585 118.313C240.013 116.677 236.668 116.715 233.615 116.048C228.611 114.955 223.117 111.631 218.949 112.363C217.559 112.607 216.616 113.294 215.294 113.612C213.972 113.931 211.881 113.707 210.742 112.677C210.429 114.042 210.081 115.458 208.754 116.337C207.427 117.217 204.8 117.365 202.689 116.241C201.624 115.494 202.083 114.537 202.888 114.072C203.694 113.607 204.803 113.237 204.792 112.409C204.782 111.587 203.673 110.702 202.914 109.852C202.154 109.001 201.875 107.818 203.049 107.725C202.694 106.607 200.225 105.816 198.887 106.15C197.549 106.484 197.064 107.47 196.598 108.375C196.131 109.28 195.494 110.225 194.021 110.403C191.512 110.705 187.667 108.649 185.747 109.541C185.137 109.824 184.912 110.354 184.475 110.754C182.527 112.538 177.414 111.3 173.34 110.001C173.293 110.097 173.244 110.194 173.194 110.291C172.781 109.629 172.255 109.044 171.641 108.563C170.328 107.563 168.67 106.286 169.191 105.393C169.468 104.919 170.293 104.773 170.943 104.53C172.194 104.06 172.876 102.999 172.149 101.831C171.422 100.663 169.006 99.6509 167.798 100.157C167.176 100.418 167.004 100.969 166.586 101.368C165.28 102.612 162.02 102.167 159.241 101.812C156.462 101.457 153.192 101.498 152.852 103.159C152.488 104.941 155.761 107.853 153.837 108.779Z" fill="black"/>
        <path opacity="0.1" d="M140.169 124.691C139.417 124.561 138.647 124.576 137.901 124.735C138.278 124.893 138.651 125.059 139.009 125.218C143.189 127.071 148.934 128.134 150.495 125.947C151.283 124.844 150.694 123.264 150.1 121.793C149.861 121.201 149.622 120.61 149.384 120.019C147.027 119.957 144.073 119.149 141.646 118.073C140.115 117.395 138.323 116.578 137.003 116.839C135.986 117.04 135.695 117.831 135.722 118.609C135.789 120.612 137.505 122.958 140.169 124.691Z" fill="black"/>
        <path d="M231.459 145.743C255.004 154.431 278.736 148.884 284.467 133.353C290.198 117.822 275.756 98.1892 252.212 89.5013C228.667 80.8134 204.934 86.3607 199.203 101.892C193.473 117.422 207.914 137.055 231.459 145.743Z" fill="#EA565C"/>
        <path opacity="0.2" d="M228.074 110.286C228.074 110.286 208.014 105.143 216.738 99.0027C225.462 92.8627 233.615 92.644 236.187 96.1748C238.759 99.7057 237.874 106.479 237.306 106.269C236.737 106.06 230.277 98.1895 226.072 100.833C221.868 103.477 228.074 110.286 228.074 110.286Z" fill="white"/>
        <path opacity="0.2" d="M244.523 117.27C244.523 117.27 256.396 134.232 245.774 133.209C235.151 132.186 228.82 127.043 229.169 122.69C229.518 118.337 234.604 113.776 234.899 114.305C235.193 114.834 234.968 125.01 239.882 125.742C244.796 126.475 244.523 117.27 244.523 117.27Z" fill="white"/>
        <path opacity="0.2" d="M250.809 111.705C250.809 111.705 259.219 92.7929 263.824 102.417C268.43 112.04 267.29 120.113 263.379 122.058C259.469 124.003 252.934 122 253.236 121.474C253.537 120.949 262.375 115.897 260.466 111.311C258.557 106.725 250.809 111.705 250.809 111.705Z" fill="white"/>
        <path d="M180.855 124.489C204.4 133.177 228.132 127.63 233.863 112.099C239.594 96.5684 225.153 76.9353 201.608 68.2474C178.063 59.5595 154.33 65.1068 148.599 80.6376C142.869 96.1684 157.31 115.802 180.855 124.489Z" fill="#EA565C"/>
        <path opacity="0.2" d="M177.47 89.0318C177.47 89.0318 157.41 83.8888 166.134 77.7488C174.858 71.6088 183.011 71.3901 185.583 74.9209C188.155 78.4518 187.27 85.2253 186.702 85.0155C186.133 84.8058 179.673 76.9357 175.468 79.5796C171.264 82.2235 177.47 89.0318 177.47 89.0318Z" fill="white"/>
        <path opacity="0.2" d="M193.919 96.0156C193.919 96.0156 205.792 112.978 195.17 111.955C184.547 110.932 178.217 105.789 178.566 101.436C178.915 97.0831 184 92.5216 184.295 93.0508C184.59 93.58 184.364 103.756 189.278 104.488C194.192 105.221 193.919 96.0156 193.919 96.0156Z" fill="white"/>
        <path opacity="0.2" d="M200.205 90.4508C200.205 90.4508 208.615 71.539 213.221 81.1626C217.827 90.7863 216.686 98.8587 212.776 100.804C208.865 102.749 202.33 100.746 202.632 100.22C202.933 99.6952 211.771 94.6426 209.862 90.0569C207.954 85.4712 200.205 90.4508 200.205 90.4508Z" fill="white"/>
        <path opacity="0.1" d="M222.248 80.6228C229.63 89.2078 232.682 99.1099 229.496 107.745C223.765 123.276 200.033 128.823 176.488 120.135C168.42 117.158 161.422 112.896 155.937 107.954C161.833 114.81 170.49 120.826 180.944 124.684C204.489 133.372 228.222 127.825 233.953 112.294C237.72 102.085 232.77 90.1031 222.248 80.6228Z" fill="black"/>
        <path opacity="0.1" d="M272.957 101.593C280.339 110.177 283.391 120.08 280.205 128.715C274.474 144.245 250.741 149.793 227.196 141.105C219.129 138.128 212.131 133.866 206.646 128.924C212.542 135.78 221.199 141.796 231.653 145.654C255.198 154.342 278.931 148.794 284.661 133.264C288.428 123.054 283.478 111.073 272.957 101.593Z" fill="black"/>
        <path d="M167.311 81.4206C167.311 81.4206 218.438 55.7501 302.275 105.081C368.548 144.077 302.12 144.594 271.379 143.099C262.46 142.664 253.633 141.099 245.108 138.442C213.446 128.575 134.762 101.166 167.311 81.4206Z" fill="#714B4F"/>
        <path opacity="0.1" d="M274.628 134.293C265.709 133.858 256.882 132.294 248.357 129.636C222.707 121.643 166.202 102.138 162.97 84.5201C143.531 103.896 215.323 128.844 245.213 138.157C253.737 140.815 262.565 142.38 271.483 142.815C294.016 143.91 335.72 143.924 330.287 128.497C320.273 135.336 291.851 135.131 274.628 134.293Z" fill="black"/>
        <path opacity="0.1" d="M254.048 87.4473L256.764 110.717" stroke="black" stroke-width="2" stroke-miterlimit="10"/>
        <path opacity="0.1" d="M220.733 83.2227L223.181 102.844" stroke="black" stroke-width="2" stroke-miterlimit="10"/>
        <path opacity="0.1" d="M271.954 94.0547L278.08 118.583" stroke="black" stroke-width="2" stroke-miterlimit="10"/>
        <path opacity="0.1" d="M214.025 101.401L307.745 123.074" stroke="black" stroke-width="2" stroke-miterlimit="10"/>
        <path opacity="0.1" d="M308.107 111.59L311.111 122.703" stroke="black" stroke-width="2" stroke-miterlimit="10"/>
        <path opacity="0.1" d="M200.597 83.5371L201.536 93.2428" stroke="black" stroke-width="2" stroke-miterlimit="10"/>
        <path d="M223.807 61.7824C223.807 61.7824 305.7 91.5801 306.723 91.1176C307.746 90.655 325.141 96.629 326.743 102.68C328.345 108.731 328.652 111.364 323.879 110.443C319.106 109.522 143.007 130.641 143.007 130.641C143.007 130.641 134.484 128.336 141.61 121.725C148.736 115.115 223.807 61.7824 223.807 61.7824Z" fill="#F6C964"/>
        <path d="M245.659 108.248C244.53 111.307 227.02 113.312 208.812 106.593C190.604 99.8744 178.593 86.9771 179.722 83.918C180.85 80.8589 196.054 85.1038 214.262 91.8224C232.47 98.541 246.787 105.189 245.659 108.248Z" fill="#61AB43"/>
        <path d="M210.699 101.48C228.907 108.199 244.582 111.166 245.711 108.107C246.84 105.048 232.994 97.1211 214.786 90.4025C196.578 83.6838 180.903 80.7172 179.774 83.7763C178.645 86.8354 192.491 94.7618 210.699 101.48Z" fill="#61AB43"/>
        <path d="M287.335 117.818C286.206 120.877 268.696 122.881 250.488 116.162C232.28 109.444 220.269 96.5464 221.398 93.4873C222.527 90.4282 237.731 94.6731 255.939 101.392C274.147 108.11 288.464 114.759 287.335 117.818Z" fill="#61AB43"/>
        <path d="M252.375 111.05C270.583 117.768 286.259 120.735 287.387 117.676C288.516 114.617 274.671 106.69 256.463 99.9718C238.255 93.2532 222.579 90.2865 221.45 93.3456C220.321 96.4047 234.167 104.331 252.375 111.05Z" fill="#61AB43"/>
        <path d="M329.011 127.387C327.883 130.446 310.373 132.45 292.165 125.732C273.957 119.013 261.945 106.116 263.074 103.057C264.203 99.9976 279.407 104.242 297.615 110.961C315.823 117.68 330.14 124.328 329.011 127.387Z" fill="#61AB43"/>
        <path d="M294.051 120.619C312.259 127.338 327.935 130.304 329.064 127.245C330.192 124.186 316.347 116.26 298.139 109.541C279.931 102.823 264.255 99.8559 263.126 102.915C261.998 105.974 275.843 113.9 294.051 120.619Z" fill="#61AB43"/>
        <path d="M174.045 71.9931C174.045 71.9931 161.3 64.7837 172.307 56.3131C183.315 47.8424 190.211 36.3385 194.257 34.693C198.781 32.8534 288.619 4.48037 320.931 84.4812C324.326 93.0324 326.314 102.076 326.817 111.261C326.923 113.002 327.153 114.614 327.601 115.585C328.994 118.605 328.56 125.606 323.298 127.245C318.036 128.884 192.727 96.6109 174.045 71.9931Z" fill="#3F3D56"/>
        <path d="M254.505 49.5838C253.455 49.8562 252.349 49.8209 251.318 49.4821C249.751 48.9037 248.636 48.0116 248.829 47.4894C249.022 46.9672 250.449 47.0128 252.016 47.5911C253.02 48.003 253.884 48.6947 254.505 49.5838V49.5838Z" fill="#F2F2F2"/>
        <path d="M234.011 35.2186C232.961 35.491 231.854 35.4557 230.824 35.1169C229.256 34.5385 228.142 33.6463 228.335 33.1242C228.527 32.602 229.954 32.6476 231.521 33.2259C232.525 33.6377 233.389 34.3295 234.011 35.2186V35.2186Z" fill="#F2F2F2"/>
        <path d="M292.467 66.702C291.384 66.6486 290.338 66.2848 289.456 65.6538C288.132 64.6342 287.335 63.4502 287.675 63.0094C288.015 62.5686 289.363 63.0379 290.686 64.0576C291.521 64.7502 292.14 65.6681 292.467 66.702Z" fill="#F2F2F2"/>
        <path d="M256.458 35.1542C255.375 35.1008 254.329 34.7369 253.447 34.106C252.124 33.0863 251.326 31.9024 251.666 31.4616C252.006 31.0208 253.354 31.4901 254.678 32.5097C255.513 33.2023 256.131 34.1203 256.458 35.1542V35.1542Z" fill="#F2F2F2"/>
        <path d="M300.089 57.6981C299.005 57.6447 297.96 57.2809 297.077 56.6499C295.754 55.6302 294.957 54.4463 295.297 54.0055C295.636 53.5647 296.985 54.034 298.308 55.0537C299.143 55.7462 299.761 56.6642 300.089 57.6981V57.6981Z" fill="#F2F2F2"/>
        <path d="M291.071 53.408C290.021 53.6804 288.914 53.6451 287.884 53.3063C286.316 52.7279 285.202 51.8358 285.395 51.3136C285.587 50.7915 287.014 50.837 288.581 51.4154C289.585 51.8272 290.449 52.5189 291.071 53.408V53.408Z" fill="#F2F2F2"/>
        <path d="M266.045 37.7293C264.995 38.0017 263.889 37.9664 262.858 37.6276C261.291 37.0492 260.176 36.1571 260.369 35.6349C260.562 35.1127 261.988 35.1583 263.556 35.7367C264.559 36.1485 265.424 36.8402 266.045 37.7293V37.7293Z" fill="#F2F2F2"/>
        <path d="M286.857 45.409C285.807 45.6814 284.701 45.6461 283.67 45.3073C282.103 44.7289 280.988 43.8368 281.181 43.3146C281.374 42.7924 282.8 42.838 284.368 43.4163C285.372 43.8282 286.236 44.5199 286.857 45.409V45.409Z" fill="#F2F2F2"/>
        <path d="M274.438 54.7909C273.388 55.0633 272.282 55.0279 271.251 54.6891C269.684 54.1108 268.57 53.2186 268.762 52.6964C268.955 52.1743 270.382 52.2198 271.949 52.7982C272.953 53.21 273.817 53.9017 274.438 54.7909V54.7909Z" fill="#F2F2F2"/>
        <path d="M252.324 44.1215C252.925 43.2195 253.774 42.5097 254.768 42.0767C256.323 41.4653 257.748 41.3896 257.952 41.9076C258.156 42.4256 257.062 43.3411 255.507 43.9524C254.484 44.313 253.379 44.3717 252.324 44.1215Z" fill="#F2F2F2"/>
        <path d="M239.413 35.4184C240.014 34.5164 240.863 33.8065 241.858 33.3736C243.412 32.7622 244.837 32.6865 245.042 33.2045C245.246 33.7224 244.151 34.638 242.597 35.2493C241.574 35.6099 240.468 35.6686 239.413 35.4184V35.4184Z" fill="#F2F2F2"/>
        <path d="M208.537 43.3608C209.139 42.4587 209.987 41.7489 210.982 41.3159C212.536 40.7046 213.962 40.6289 214.166 41.1469C214.37 41.6648 213.275 42.5803 211.721 43.1917C210.698 43.5522 209.593 43.6109 208.537 43.3608Z" fill="#F2F2F2"/>
        <path d="M270.067 44.5815C270.669 43.6795 271.518 42.9696 272.512 42.5367C274.067 41.9253 275.492 41.8496 275.696 42.3676C275.9 42.8855 274.806 43.801 273.251 44.4124C272.228 44.7729 271.123 44.8317 270.067 44.5815Z" fill="#F2F2F2"/>
        <path d="M260.205 53.8325C260.806 52.9304 261.655 52.2206 262.65 51.7876C264.204 51.1763 265.63 51.1006 265.834 51.6185C266.038 52.1365 264.943 53.052 263.389 53.6634C262.366 54.0239 261.26 54.0826 260.205 53.8325Z" fill="#F2F2F2"/>
        <path d="M319.377 215.984C319.377 215.984 314.582 215.685 311.468 217.477C311.468 217.477 306.945 217.77 304.73 216.462C302.514 215.154 296.605 217.876 299.581 220.445C302.557 223.014 322.439 234.272 323.269 233.353C324.099 232.433 328.159 221.43 328.159 221.43L319.377 215.984Z" fill="#575A89"/>
        <path d="M353.975 226.646C353.975 226.646 349.199 227.17 346.438 229.468C346.438 229.468 342.032 230.528 339.626 229.618C337.219 228.707 331.862 232.398 335.233 234.422C338.605 236.445 360.117 244.144 360.777 243.096C361.438 242.049 363.558 230.513 363.558 230.513L353.975 226.646Z" fill="#575A89"/>
        <path d="M381.045 70.46C386.41 72.4397 392.363 69.6978 394.342 64.3358C396.321 58.9738 393.575 53.0222 388.21 51.0425C382.845 49.0628 376.892 51.8048 374.913 57.1668C372.935 62.5288 375.68 68.4804 381.045 70.46Z" fill="#FFB9B9"/>
        <path d="M391.91 65.2764C391.91 65.2764 390.283 73.0102 391.907 74.5901C393.013 75.7539 393.929 77.0846 394.621 78.5333L388.269 79.1309L377.93 74.5805C377.93 74.5805 380.545 70.1526 379.91 67.2218C379.275 64.2909 391.91 65.2764 391.91 65.2764Z" fill="#FFB9B9"/>
        <path d="M399.169 107.421C399.169 107.421 399.437 121.982 389.934 132.448C380.431 142.913 377.556 144.059 377.556 144.059L382.016 127.32L384.335 126.385C384.335 126.385 387.198 121.864 387.415 118.642C387.633 115.42 392.272 106.837 392.272 106.837L399.169 107.421Z" fill="#FFB9B9"/>
        <path d="M351.849 121.336C351.849 121.336 340.334 133.265 338.434 140.408C336.534 147.551 330.752 178.51 330.752 178.51C330.752 178.51 316.252 215.811 318.195 216.528C320.138 217.245 328.147 224.122 329.022 221.749C329.898 219.376 352.858 163.135 352.858 163.135C352.858 163.135 354.633 192.224 354.996 194.564C355.358 196.904 351.041 229.874 353.416 230.75C355.791 231.626 363.926 232.177 363.836 230.428C363.746 228.679 368.825 192.313 367.908 182.17C366.991 172.026 379.875 139.767 379.875 139.767L378.54 122.115L351.849 121.336Z" fill="#3F3D56"/>
        <path d="M383.345 55.253C383.345 55.253 377.46 52.5911 377.586 50.9215C377.711 49.252 377.325 47.6388 377.757 47.7982C378.189 47.9575 378.803 46.9584 378.803 46.9584C378.803 46.9584 379.314 46.9019 379.45 47.1973C379.587 47.4927 380.439 45.8464 380.439 45.8464C380.439 45.8464 380.894 45.2788 380.951 45.79C381.007 46.3011 381.087 46.0854 381.542 45.5178C381.996 44.9502 383.235 44.917 383.235 44.917C383.235 44.917 387.257 46.6462 388.223 46.0221C389.189 45.3981 396.29 48.7536 397.403 50.39C398.516 52.0263 403.775 58.3791 401.502 61.2171C399.228 64.0551 392.715 69.7411 392.317 70.8198C391.919 71.8986 390.488 71.1252 390.454 69.8872C390.42 68.6491 387.444 66.0801 387.683 65.4329C387.922 64.7856 388.208 58.0277 386.969 58.0609C385.731 58.0941 383.162 61.0682 382.969 60.2617C382.776 59.4551 383.345 55.253 383.345 55.253Z" fill="#3F3D56"/>
        <path d="M402.229 95.8027C402.229 95.8027 398.155 79.5918 395.804 77.9887C393.452 76.3856 388.26 72.5089 388.26 72.5089C388.26 72.5089 382.113 71.2212 380.068 71.447C378.022 71.6727 370.989 70.7933 369.818 73.3026C368.646 75.812 361.434 101.34 359.479 103.315C357.524 105.29 345.495 126.59 347.381 126.796C349.267 127.001 350.042 120.914 357.677 123.486C365.312 126.058 371.086 123.041 371.902 129.47C372.718 135.9 379.193 142.946 379.193 142.946C380.035 141.281 380.961 139.659 381.967 138.087C383.729 135.305 384.061 127.093 384.061 127.093C384.061 127.093 390.566 110.129 392.146 108.506C393.726 106.882 402.229 95.8027 402.229 95.8027Z" fill="#FEE715"/>
        <path d="M399.15 94.1764L402.229 95.8027C402.229 95.8027 400.421 100.038 400.807 101.651C401.193 103.264 400.236 110.51 399.293 110.407C398.35 110.304 390.101 108.731 390.101 108.731L393.331 98.6475L399.15 94.1764Z" fill="#FEE715"/>
        <path d="M361.313 89.0391C361.313 89.0391 353.98 102.266 352.263 103.594C350.547 104.922 336.234 127.094 336.234 127.094C336.234 127.094 322.808 136.154 327.205 137.531C331.602 138.909 340.233 129.551 340.233 129.551C340.233 129.551 362.613 110.109 363.568 107.52C364.524 104.931 372.538 93.1812 372.538 93.1812L361.313 89.0391Z" fill="#FFB9B9"/>
        <path d="M374.579 72.3637L370.136 72.4402C370.136 72.4402 358.643 88.2996 359.165 90.2082C359.687 92.1167 373.436 94.7385 373.89 94.1709C374.345 93.6033 378.681 73.8772 374.579 72.3637Z" fill="#FEE715"/>
        <path d="M58.653 88.8135C50.8964 109.834 57.8148 131.713 74.1212 137.73Z" fill="#46455B"/>
        <path d="M74.1211 137.731C81.9648 116.473 103.037 104.706 121.234 111.42Z" fill="#FEE715"/>
        <path d="M68.6387 94.6631C61.2708 114.631 63.7229 133.893 74.1212 137.73Z" fill="#FEE715"/>
        <path d="M74.1212 137.73C84.1437 110.568 109.273 94.869 130.306 102.63Z" fill="#46455B"/>
        <path d="M67.8158 135.709C67.8158 135.709 72.0471 137.124 73.6391 136.692C75.2311 136.259 80.8013 137.097 80.5831 138.652C80.3648 140.207 84.2294 148.13 79.4919 146.425C74.7543 144.72 68.788 141.64 67.8122 140.409C66.8364 139.179 67.8158 135.709 67.8158 135.709Z" fill="#A8A8A8"/>
        <path opacity="0.2" d="M79.761 145.955C75.0235 144.25 69.0571 141.17 68.0814 139.939C67.3383 139.002 67.7289 136.768 67.9575 135.755C67.8676 135.726 67.8159 135.709 67.8159 135.709C67.8159 135.709 66.8365 139.179 67.8122 140.409C68.788 141.64 74.7544 144.72 79.4919 146.425C80.8594 146.917 81.5093 146.606 81.7484 145.878C81.3989 146.242 80.7789 146.321 79.761 145.955Z" fill="black"/>
    </g>
    <defs>
        <clipPath id="clip0">
            <rect width="411.42" height="224.554" fill="white" transform="translate(77.7355 -69) rotate(20.2537)"/>
        </clipPath>
    </defs>
</svg>
