<svg width="241" height="240" viewBox="0 0 241 240" fill="none" xmlns="http://www.w3.org/2000/svg">
    <g clip-path="url(#clip0)">
        <path d="M240.427 0H0.427429V240H240.427V0Z" fill="white"/>
        <path d="M74.762 21.3447H67.4893V28.6175H74.762V21.3447Z" fill="black"/>
        <path d="M82.0347 21.3447H74.762V28.6175H82.0347V21.3447Z" fill="black"/>
        <path d="M89.3074 21.3447H82.0347V28.6175H89.3074V21.3447Z" fill="black"/>
        <path d="M111.126 21.3447H103.853V28.6175H111.126V21.3447Z" fill="black"/>
        <path d="M118.398 21.3447H111.126V28.6175H118.398V21.3447Z" fill="black"/>
        <path d="M125.671 21.3447H118.398V28.6175H125.671V21.3447Z" fill="black"/>
        <path d="M147.489 21.3447H140.217V28.6175H147.489V21.3447Z" fill="black"/>
        <path d="M74.762 28.6172H67.4893V35.8899H74.762V28.6172Z" fill="black"/>
        <path d="M82.0347 28.6172H74.762V35.8899H82.0347V28.6172Z" fill="black"/>
        <path d="M89.3074 28.6172H82.0347V35.8899H89.3074V28.6172Z" fill="black"/>
        <path d="M96.5802 28.6172H89.3074V35.8899H96.5802V28.6172Z" fill="black"/>
        <path d="M103.853 28.6172H96.5802V35.8899H103.853V28.6172Z" fill="black"/>
        <path d="M111.126 28.6172H103.853V35.8899H111.126V28.6172Z" fill="black"/>
        <path d="M118.398 28.6172H111.126V35.8899H118.398V28.6172Z" fill="black"/>
        <path d="M125.671 28.6172H118.398V35.8899H125.671V28.6172Z" fill="black"/>
        <path d="M140.217 28.6172H132.944V35.8899H140.217V28.6172Z" fill="black"/>
        <path d="M147.489 28.6172H140.217V35.8899H147.489V28.6172Z" fill="black"/>
        <path d="M154.762 28.6172H147.489V35.8899H154.762V28.6172Z" fill="black"/>
        <path d="M162.035 28.6172H154.762V35.8899H162.035V28.6172Z" fill="black"/>
        <path d="M74.762 35.8906H67.4893V43.1634H74.762V35.8906Z" fill="black"/>
        <path d="M82.0347 35.8906H74.762V43.1634H82.0347V35.8906Z" fill="black"/>
        <path d="M89.3074 35.8906H82.0347V43.1634H89.3074V35.8906Z" fill="black"/>
        <path d="M96.5802 35.8906H89.3074V43.1634H96.5802V35.8906Z" fill="black"/>
        <path d="M111.126 35.8906H103.853V43.1634H111.126V35.8906Z" fill="black"/>
        <path d="M118.398 35.8906H111.126V43.1634H118.398V35.8906Z" fill="black"/>
        <path d="M162.035 35.8906H154.762V43.1634H162.035V35.8906Z" fill="black"/>
        <path d="M82.0347 43.1631H74.762V50.4358H82.0347V43.1631Z" fill="black"/>
        <path d="M89.3074 43.1631H82.0347V50.4358H89.3074V43.1631Z" fill="black"/>
        <path d="M96.5802 43.1631H89.3074V50.4358H96.5802V43.1631Z" fill="black"/>
        <path d="M103.853 43.1631H96.5802V50.4358H103.853V43.1631Z" fill="black"/>
        <path d="M118.398 43.1631H111.126V50.4358H118.398V43.1631Z" fill="black"/>
        <path d="M125.671 43.1631H118.398V50.4358H125.671V43.1631Z" fill="black"/>
        <path d="M140.217 43.1631H132.944V50.4358H140.217V43.1631Z" fill="black"/>
        <path d="M154.762 43.1631H147.489V50.4358H154.762V43.1631Z" fill="black"/>
        <path d="M162.035 43.1631H154.762V50.4358H162.035V43.1631Z" fill="black"/>
        <path d="M74.762 50.4355H67.4893V57.7083H74.762V50.4355Z" fill="black"/>
        <path d="M82.0347 50.4355H74.762V57.7083H82.0347V50.4355Z" fill="black"/>
        <path d="M89.3074 50.4355H82.0347V57.7083H89.3074V50.4355Z" fill="black"/>
        <path d="M103.853 50.4355H96.5802V57.7083H103.853V50.4355Z" fill="black"/>
        <path d="M111.126 50.4355H103.853V57.7083H111.126V50.4355Z" fill="black"/>
        <path d="M125.671 50.4355H118.398V57.7083H125.671V50.4355Z" fill="black"/>
        <path d="M140.217 50.4355H132.944V57.7083H140.217V50.4355Z" fill="black"/>
        <path d="M147.489 50.4355H140.217V57.7083H147.489V50.4355Z" fill="black"/>
        <path d="M154.762 50.4355H147.489V57.7083H154.762V50.4355Z" fill="black"/>
        <path d="M82.0347 57.708H74.762V64.9807H82.0347V57.708Z" fill="black"/>
        <path d="M111.126 57.708H103.853V64.9807H111.126V57.708Z" fill="black"/>
        <path d="M118.398 57.708H111.126V64.9807H118.398V57.708Z" fill="black"/>
        <path d="M140.217 57.708H132.944V64.9807H140.217V57.708Z" fill="black"/>
        <path d="M162.035 57.708H154.762V64.9807H162.035V57.708Z" fill="black"/>
        <path d="M74.762 64.9814H67.4893V72.2542H74.762V64.9814Z" fill="black"/>
        <path d="M89.3074 64.9814H82.0347V72.2542H89.3074V64.9814Z" fill="black"/>
        <path d="M103.853 64.9814H96.5802V72.2542H103.853V64.9814Z" fill="black"/>
        <path d="M118.398 64.9814H111.126V72.2542H118.398V64.9814Z" fill="black"/>
        <path d="M132.944 64.9814H125.671V72.2542H132.944V64.9814Z" fill="black"/>
        <path d="M147.489 64.9814H140.217V72.2542H147.489V64.9814Z" fill="black"/>
        <path d="M162.035 64.9814H154.762V72.2542H162.035V64.9814Z" fill="black"/>
        <path d="M82.0347 72.2539H74.762V79.5266H82.0347V72.2539Z" fill="black"/>
        <path d="M103.853 72.2539H96.5802V79.5266H103.853V72.2539Z" fill="black"/>
        <path d="M118.398 72.2539H111.126V79.5266H118.398V72.2539Z" fill="black"/>
        <path d="M16.5802 79.5264H9.30745V86.7991H16.5802V79.5264Z" fill="black"/>
        <path d="M38.3984 79.5264H31.1256V86.7991H38.3984V79.5264Z" fill="black"/>
        <path d="M45.6711 79.5264H38.3984V86.7991H45.6711V79.5264Z" fill="black"/>
        <path d="M52.9438 79.5264H45.6711V86.7991H52.9438V79.5264Z" fill="black"/>
        <path d="M60.2165 79.5264H52.9438V86.7991H60.2165V79.5264Z" fill="black"/>
        <path d="M67.4893 79.5264H60.2165V86.7991H67.4893V79.5264Z" fill="black"/>
        <path d="M74.762 79.5264H67.4893V86.7991H74.762V79.5264Z" fill="black"/>
        <path d="M82.0347 79.5264H74.762V86.7991H82.0347V79.5264Z" fill="black"/>
        <path d="M103.853 79.5264H96.5802V86.7991H103.853V79.5264Z" fill="black"/>
        <path d="M111.126 79.5264H103.853V86.7991H111.126V79.5264Z" fill="black"/>
        <path d="M118.398 79.5264H111.126V86.7991H118.398V79.5264Z" fill="black"/>
        <path d="M125.671 79.5264H118.398V86.7991H125.671V79.5264Z" fill="black"/>
        <path d="M132.944 79.5264H125.671V86.7991H132.944V79.5264Z" fill="black"/>
        <path d="M140.217 79.5264H132.944V86.7991H140.217V79.5264Z" fill="black"/>
        <path d="M169.307 79.5264H162.035V86.7991H169.307V79.5264Z" fill="black"/>
        <path d="M191.126 79.5264H183.853V86.7991H191.126V79.5264Z" fill="black"/>
        <path d="M205.671 79.5264H198.398V86.7991H205.671V79.5264Z" fill="black"/>
        <path d="M212.944 79.5264H205.671V86.7991H212.944V79.5264Z" fill="black"/>
        <path d="M220.217 79.5264H212.944V86.7991H220.217V79.5264Z" fill="black"/>
        <path d="M16.5802 86.7988H9.30745V94.0716H16.5802V86.7988Z" fill="black"/>
        <path d="M31.1256 86.7988H23.8529V94.0716H31.1256V86.7988Z" fill="black"/>
        <path d="M74.762 86.7988H67.4893V94.0716H74.762V86.7988Z" fill="black"/>
        <path d="M103.853 86.7988H96.5802V94.0716H103.853V86.7988Z" fill="black"/>
        <path d="M118.398 86.7988H111.126V94.0716H118.398V86.7988Z" fill="black"/>
        <path d="M140.217 86.7988H132.944V94.0716H140.217V86.7988Z" fill="black"/>
        <path d="M154.762 86.7988H147.489V94.0716H154.762V86.7988Z" fill="black"/>
        <path d="M169.307 86.7988H162.035V94.0716H169.307V86.7988Z" fill="black"/>
        <path d="M183.853 86.7988H176.58V94.0716H183.853V86.7988Z" fill="black"/>
        <path d="M191.126 86.7988H183.853V94.0716H191.126V86.7988Z" fill="black"/>
        <path d="M205.671 86.7988H198.398V94.0716H205.671V86.7988Z" fill="black"/>
        <path d="M212.944 86.7988H205.671V94.0716H212.944V86.7988Z" fill="black"/>
        <path d="M23.8529 94.0723H16.5802V101.345H23.8529V94.0723Z" fill="black"/>
        <path d="M31.1256 94.0723H23.8529V101.345H31.1256V94.0723Z" fill="black"/>
        <path d="M45.6711 94.0723H38.3984V101.345H45.6711V94.0723Z" fill="black"/>
        <path d="M52.9438 94.0723H45.6711V101.345H52.9438V94.0723Z" fill="black"/>
        <path d="M60.2165 94.0723H52.9438V101.345H60.2165V94.0723Z" fill="black"/>
        <path d="M82.0347 94.0723H74.762V101.345H82.0347V94.0723Z" fill="black"/>
        <path d="M89.3074 94.0723H82.0347V101.345H89.3074V94.0723Z" fill="black"/>
        <path d="M118.398 94.0723H111.126V101.345H118.398V94.0723Z" fill="black"/>
        <path d="M140.217 94.0723H132.944V101.345H140.217V94.0723Z" fill="black"/>
        <path d="M147.489 94.0723H140.217V101.345H147.489V94.0723Z" fill="black"/>
        <path d="M169.307 94.0723H162.035V101.345H169.307V94.0723Z" fill="black"/>
        <path d="M183.853 94.0723H176.58V101.345H183.853V94.0723Z" fill="black"/>
        <path d="M205.671 94.0723H198.398V101.345H205.671V94.0723Z" fill="black"/>
        <path d="M38.3984 101.345H31.1256V108.617H38.3984V101.345Z" fill="black"/>
        <path d="M45.6711 101.345H38.3984V108.617H45.6711V101.345Z" fill="black"/>
        <path d="M74.762 101.345H67.4893V108.617H74.762V101.345Z" fill="black"/>
        <path d="M82.0347 101.345H74.762V108.617H82.0347V101.345Z" fill="black"/>
        <path d="M89.3074 101.345H82.0347V108.617H89.3074V101.345Z" fill="black"/>
        <path d="M118.398 101.345H111.126V108.617H118.398V101.345Z" fill="black"/>
        <path d="M125.671 101.345H118.398V108.617H125.671V101.345Z" fill="black"/>
        <path d="M140.217 101.345H132.944V108.617H140.217V101.345Z" fill="black"/>
        <path d="M162.035 101.345H154.762V108.617H162.035V101.345Z" fill="black"/>
        <path d="M169.307 101.345H162.035V108.617H169.307V101.345Z" fill="black"/>
        <path d="M176.58 101.345H169.307V108.617H176.58V101.345Z" fill="black"/>
        <path d="M198.398 101.345H191.126V108.617H198.398V101.345Z" fill="black"/>
        <path d="M220.217 101.345H212.944V108.617H220.217V101.345Z" fill="black"/>
        <path d="M16.5802 108.617H9.30745V115.89H16.5802V108.617Z" fill="black"/>
        <path d="M23.8529 108.617H16.5802V115.89H23.8529V108.617Z" fill="black"/>
        <path d="M31.1256 108.617H23.8529V115.89H31.1256V108.617Z" fill="black"/>
        <path d="M38.3984 108.617H31.1256V115.89H38.3984V108.617Z" fill="black"/>
        <path d="M60.2165 108.617H52.9438V115.89H60.2165V108.617Z" fill="black"/>
        <path d="M89.3074 108.617H82.0347V115.89H89.3074V108.617Z" fill="black"/>
        <path d="M103.853 108.617H96.5802V115.89H103.853V108.617Z" fill="black"/>
        <path d="M111.126 108.617H103.853V115.89H111.126V108.617Z" fill="black"/>
        <path d="M118.398 108.617H111.126V115.89H118.398V108.617Z" fill="black"/>
        <path d="M147.489 108.617H140.217V115.89H147.489V108.617Z" fill="black"/>
        <path d="M162.035 108.617H154.762V115.89H162.035V108.617Z" fill="black"/>
        <path d="M176.58 108.617H169.307V115.89H176.58V108.617Z" fill="black"/>
        <path d="M183.853 108.617H176.58V115.89H183.853V108.617Z" fill="black"/>
        <path d="M220.217 108.617H212.944V115.89H220.217V108.617Z" fill="black"/>
        <path d="M31.1256 115.891H23.8529V123.163H31.1256V115.891Z" fill="black"/>
        <path d="M96.5802 115.891H89.3074V123.163H96.5802V115.891Z" fill="black"/>
        <path d="M103.853 115.891H96.5802V123.163H103.853V115.891Z" fill="black"/>
        <path d="M140.217 115.891H132.944V123.163H140.217V115.891Z" fill="black"/>
        <path d="M147.489 115.891H140.217V123.163H147.489V115.891Z" fill="black"/>
        <path d="M169.307 115.891H162.035V123.163H169.307V115.891Z" fill="black"/>
        <path d="M176.58 115.891H169.307V123.163H176.58V115.891Z" fill="black"/>
        <path d="M191.126 115.891H183.853V123.163H191.126V115.891Z" fill="black"/>
        <path d="M198.398 115.891H191.126V123.163H198.398V115.891Z" fill="black"/>
        <path d="M205.671 115.891H198.398V123.163H205.671V115.891Z" fill="black"/>
        <path d="M212.944 115.891H205.671V123.163H212.944V115.891Z" fill="black"/>
        <path d="M220.217 115.891H212.944V123.163H220.217V115.891Z" fill="black"/>
        <path d="M23.8529 123.163H16.5802V130.436H23.8529V123.163Z" fill="black"/>
        <path d="M52.9438 123.163H45.6711V130.436H52.9438V123.163Z" fill="black"/>
        <path d="M60.2165 123.163H52.9438V130.436H60.2165V123.163Z" fill="black"/>
        <path d="M67.4893 123.163H60.2165V130.436H67.4893V123.163Z" fill="black"/>
        <path d="M74.762 123.163H67.4893V130.436H74.762V123.163Z" fill="black"/>
        <path d="M89.3074 123.163H82.0347V130.436H89.3074V123.163Z" fill="black"/>
        <path d="M118.398 123.163H111.126V130.436H118.398V123.163Z" fill="black"/>
        <path d="M125.671 123.163H118.398V130.436H125.671V123.163Z" fill="black"/>
        <path d="M140.217 123.163H132.944V130.436H140.217V123.163Z" fill="black"/>
        <path d="M154.762 123.163H147.489V130.436H154.762V123.163Z" fill="black"/>
        <path d="M162.035 123.163H154.762V130.436H162.035V123.163Z" fill="black"/>
        <path d="M169.307 123.163H162.035V130.436H169.307V123.163Z" fill="black"/>
        <path d="M176.58 123.163H169.307V130.436H176.58V123.163Z" fill="black"/>
        <path d="M183.853 123.163H176.58V130.436H183.853V123.163Z" fill="black"/>
        <path d="M205.671 123.163H198.398V130.436H205.671V123.163Z" fill="black"/>
        <path d="M220.217 123.163H212.944V130.436H220.217V123.163Z" fill="black"/>
        <path d="M16.5802 130.436H9.30745V137.708H16.5802V130.436Z" fill="black"/>
        <path d="M23.8529 130.436H16.5802V137.708H23.8529V130.436Z" fill="black"/>
        <path d="M45.6711 130.436H38.3984V137.708H45.6711V130.436Z" fill="black"/>
        <path d="M67.4893 130.436H60.2165V137.708H67.4893V130.436Z" fill="black"/>
        <path d="M82.0347 130.436H74.762V137.708H82.0347V130.436Z" fill="black"/>
        <path d="M89.3074 130.436H82.0347V137.708H89.3074V130.436Z" fill="black"/>
        <path d="M111.126 130.436H103.853V137.708H111.126V130.436Z" fill="black"/>
        <path d="M118.398 130.436H111.126V137.708H118.398V130.436Z" fill="black"/>
        <path d="M132.944 130.436H125.671V137.708H132.944V130.436Z" fill="black"/>
        <path d="M147.489 130.436H140.217V137.708H147.489V130.436Z" fill="black"/>
        <path d="M183.853 130.436H176.58V137.708H183.853V130.436Z" fill="black"/>
        <path d="M191.126 130.436H183.853V137.708H191.126V130.436Z" fill="black"/>
        <path d="M205.671 130.436H198.398V137.708H205.671V130.436Z" fill="black"/>
        <path d="M220.217 130.436H212.944V137.708H220.217V130.436Z" fill="black"/>
        <path d="M45.6711 137.708H38.3984V144.981H45.6711V137.708Z" fill="black"/>
        <path d="M60.2165 137.708H52.9438V144.981H60.2165V137.708Z" fill="black"/>
        <path d="M103.853 137.708H96.5802V144.981H103.853V137.708Z" fill="black"/>
        <path d="M125.671 137.708H118.398V144.981H125.671V137.708Z" fill="black"/>
        <path d="M154.762 137.708H147.489V144.981H154.762V137.708Z" fill="black"/>
        <path d="M162.035 137.708H154.762V144.981H162.035V137.708Z" fill="black"/>
        <path d="M198.398 137.708H191.126V144.981H198.398V137.708Z" fill="black"/>
        <path d="M16.5802 144.981H9.30745V152.254H16.5802V144.981Z" fill="black"/>
        <path d="M38.3984 144.981H31.1256V152.254H38.3984V144.981Z" fill="black"/>
        <path d="M74.762 144.981H67.4893V152.254H74.762V144.981Z" fill="black"/>
        <path d="M82.0347 144.981H74.762V152.254H82.0347V144.981Z" fill="black"/>
        <path d="M140.217 144.981H132.944V152.254H140.217V144.981Z" fill="black"/>
        <path d="M147.489 144.981H140.217V152.254H147.489V144.981Z" fill="black"/>
        <path d="M154.762 144.981H147.489V152.254H154.762V144.981Z" fill="black"/>
        <path d="M191.126 144.981H183.853V152.254H191.126V144.981Z" fill="black"/>
        <path d="M205.671 144.981H198.398V152.254H205.671V144.981Z" fill="black"/>
        <path d="M212.944 144.981H205.671V152.254H212.944V144.981Z" fill="black"/>
        <path d="M16.5802 152.254H9.30745V159.527H16.5802V152.254Z" fill="black"/>
        <path d="M23.8529 152.254H16.5802V159.527H23.8529V152.254Z" fill="black"/>
        <path d="M31.1256 152.254H23.8529V159.527H31.1256V152.254Z" fill="black"/>
        <path d="M60.2165 152.254H52.9438V159.527H60.2165V152.254Z" fill="black"/>
        <path d="M67.4893 152.254H60.2165V159.527H67.4893V152.254Z" fill="black"/>
        <path d="M82.0347 152.254H74.762V159.527H82.0347V152.254Z" fill="black"/>
        <path d="M89.3074 152.254H82.0347V159.527H89.3074V152.254Z" fill="black"/>
        <path d="M111.126 152.254H103.853V159.527H111.126V152.254Z" fill="black"/>
        <path d="M118.398 152.254H111.126V159.527H118.398V152.254Z" fill="black"/>
        <path d="M132.944 152.254H125.671V159.527H132.944V152.254Z" fill="black"/>
        <path d="M147.489 152.254H140.217V159.527H147.489V152.254Z" fill="black"/>
        <path d="M154.762 152.254H147.489V159.527H154.762V152.254Z" fill="black"/>
        <path d="M169.307 152.254H162.035V159.527H169.307V152.254Z" fill="black"/>
        <path d="M176.58 152.254H169.307V159.527H176.58V152.254Z" fill="black"/>
        <path d="M198.398 152.254H191.126V159.527H198.398V152.254Z" fill="black"/>
        <path d="M220.217 152.254H212.944V159.527H220.217V152.254Z" fill="black"/>
        <path d="M16.5802 159.526H9.30745V166.799H16.5802V159.526Z" fill="black"/>
        <path d="M23.8529 159.526H16.5802V166.799H23.8529V159.526Z" fill="black"/>
        <path d="M45.6711 159.526H38.3984V166.799H45.6711V159.526Z" fill="black"/>
        <path d="M52.9438 159.526H45.6711V166.799H52.9438V159.526Z" fill="black"/>
        <path d="M67.4893 159.526H60.2165V166.799H67.4893V159.526Z" fill="black"/>
        <path d="M74.762 159.526H67.4893V166.799H74.762V159.526Z" fill="black"/>
        <path d="M82.0347 159.526H74.762V166.799H82.0347V159.526Z" fill="black"/>
        <path d="M89.3074 159.526H82.0347V166.799H89.3074V159.526Z" fill="black"/>
        <path d="M96.5802 159.526H89.3074V166.799H96.5802V159.526Z" fill="black"/>
        <path d="M111.126 159.526H103.853V166.799H111.126V159.526Z" fill="black"/>
        <path d="M125.671 159.526H118.398V166.799H125.671V159.526Z" fill="black"/>
        <path d="M132.944 159.526H125.671V166.799H132.944V159.526Z" fill="black"/>
        <path d="M154.762 159.526H147.489V166.799H154.762V159.526Z" fill="black"/>
        <path d="M169.307 159.526H162.035V166.799H169.307V159.526Z" fill="black"/>
        <path d="M176.58 159.526H169.307V166.799H176.58V159.526Z" fill="black"/>
        <path d="M183.853 159.526H176.58V166.799H183.853V159.526Z" fill="black"/>
        <path d="M191.126 159.526H183.853V166.799H191.126V159.526Z" fill="black"/>
        <path d="M198.398 159.526H191.126V166.799H198.398V159.526Z" fill="black"/>
        <path d="M205.671 159.526H198.398V166.799H205.671V159.526Z" fill="black"/>
        <path d="M16.5802 166.799H9.30745V174.072H16.5802V166.799Z" fill="black"/>
        <path d="M23.8529 166.799H16.5802V174.072H23.8529V166.799Z" fill="black"/>
        <path d="M31.1256 166.799H23.8529V174.072H31.1256V166.799Z" fill="black"/>
        <path d="M52.9438 166.799H45.6711V174.072H52.9438V166.799Z" fill="black"/>
        <path d="M60.2165 166.799H52.9438V174.072H60.2165V166.799Z" fill="black"/>
        <path d="M82.0347 166.799H74.762V174.072H82.0347V166.799Z" fill="black"/>
        <path d="M89.3074 166.799H82.0347V174.072H89.3074V166.799Z" fill="black"/>
        <path d="M103.853 166.799H96.5802V174.072H103.853V166.799Z" fill="black"/>
        <path d="M111.126 166.799H103.853V174.072H111.126V166.799Z" fill="black"/>
        <path d="M140.217 166.799H132.944V174.072H140.217V166.799Z" fill="black"/>
        <path d="M154.762 166.799H147.489V174.072H154.762V166.799Z" fill="black"/>
        <path d="M162.035 166.799H154.762V174.072H162.035V166.799Z" fill="black"/>
        <path d="M169.307 166.799H162.035V174.072H169.307V166.799Z" fill="black"/>
        <path d="M176.58 166.799H169.307V174.072H176.58V166.799Z" fill="black"/>
        <path d="M183.853 166.799H176.58V174.072H183.853V166.799Z" fill="black"/>
        <path d="M191.126 166.799H183.853V174.072H191.126V166.799Z" fill="black"/>
        <path d="M198.398 166.799H191.126V174.072H198.398V166.799Z" fill="black"/>
        <path d="M205.671 166.799H198.398V174.072H205.671V166.799Z" fill="black"/>
        <path d="M212.944 166.799H205.671V174.072H212.944V166.799Z" fill="black"/>
        <path d="M74.762 174.072H67.4893V181.345H74.762V174.072Z" fill="black"/>
        <path d="M96.5802 174.072H89.3074V181.345H96.5802V174.072Z" fill="black"/>
        <path d="M111.126 174.072H103.853V181.345H111.126V174.072Z" fill="black"/>
        <path d="M132.944 174.072H125.671V181.345H132.944V174.072Z" fill="black"/>
        <path d="M140.217 174.072H132.944V181.345H140.217V174.072Z" fill="black"/>
        <path d="M147.489 174.072H140.217V181.345H147.489V174.072Z" fill="black"/>
        <path d="M162.035 174.072H154.762V181.345H162.035V174.072Z" fill="black"/>
        <path d="M191.126 174.072H183.853V181.345H191.126V174.072Z" fill="black"/>
        <path d="M198.398 174.072H191.126V181.345H198.398V174.072Z" fill="black"/>
        <path d="M74.762 181.345H67.4893V188.617H74.762V181.345Z" fill="black"/>
        <path d="M111.126 181.345H103.853V188.617H111.126V181.345Z" fill="black"/>
        <path d="M125.671 181.345H118.398V188.617H125.671V181.345Z" fill="black"/>
        <path d="M132.944 181.345H125.671V188.617H132.944V181.345Z" fill="black"/>
        <path d="M154.762 181.345H147.489V188.617H154.762V181.345Z" fill="black"/>
        <path d="M162.035 181.345H154.762V188.617H162.035V181.345Z" fill="black"/>
        <path d="M176.58 181.345H169.307V188.617H176.58V181.345Z" fill="black"/>
        <path d="M191.126 181.345H183.853V188.617H191.126V181.345Z" fill="black"/>
        <path d="M198.398 181.345H191.126V188.617H198.398V181.345Z" fill="black"/>
        <path d="M74.762 188.617H67.4893V195.89H74.762V188.617Z" fill="black"/>
        <path d="M82.0347 188.617H74.762V195.89H82.0347V188.617Z" fill="black"/>
        <path d="M89.3074 188.617H82.0347V195.89H89.3074V188.617Z" fill="black"/>
        <path d="M103.853 188.617H96.5802V195.89H103.853V188.617Z" fill="black"/>
        <path d="M111.126 188.617H103.853V195.89H111.126V188.617Z" fill="black"/>
        <path d="M132.944 188.617H125.671V195.89H132.944V188.617Z" fill="black"/>
        <path d="M140.217 188.617H132.944V195.89H140.217V188.617Z" fill="black"/>
        <path d="M154.762 188.617H147.489V195.89H154.762V188.617Z" fill="black"/>
        <path d="M162.035 188.617H154.762V195.89H162.035V188.617Z" fill="black"/>
        <path d="M191.126 188.617H183.853V195.89H191.126V188.617Z" fill="black"/>
        <path d="M212.944 188.617H205.671V195.89H212.944V188.617Z" fill="black"/>
        <path d="M220.217 188.617H212.944V195.89H220.217V188.617Z" fill="black"/>
        <path d="M74.762 195.891H67.4893V203.163H74.762V195.891Z" fill="black"/>
        <path d="M96.5802 195.891H89.3074V203.163H96.5802V195.891Z" fill="black"/>
        <path d="M103.853 195.891H96.5802V203.163H103.853V195.891Z" fill="black"/>
        <path d="M111.126 195.891H103.853V203.163H111.126V195.891Z" fill="black"/>
        <path d="M125.671 195.891H118.398V203.163H125.671V195.891Z" fill="black"/>
        <path d="M132.944 195.891H125.671V203.163H132.944V195.891Z" fill="black"/>
        <path d="M154.762 195.891H147.489V203.163H154.762V195.891Z" fill="black"/>
        <path d="M162.035 195.891H154.762V203.163H162.035V195.891Z" fill="black"/>
        <path d="M169.307 195.891H162.035V203.163H169.307V195.891Z" fill="black"/>
        <path d="M176.58 195.891H169.307V203.163H176.58V195.891Z" fill="black"/>
        <path d="M183.853 195.891H176.58V203.163H183.853V195.891Z" fill="black"/>
        <path d="M191.126 195.891H183.853V203.163H191.126V195.891Z" fill="black"/>
        <path d="M198.398 195.891H191.126V203.163H198.398V195.891Z" fill="black"/>
        <path d="M74.762 203.163H67.4893V210.436H74.762V203.163Z" fill="black"/>
        <path d="M103.853 203.163H96.5802V210.436H103.853V203.163Z" fill="black"/>
        <path d="M111.126 203.163H103.853V210.436H111.126V203.163Z" fill="black"/>
        <path d="M118.398 203.163H111.126V210.436H118.398V203.163Z" fill="black"/>
        <path d="M132.944 203.163H125.671V210.436H132.944V203.163Z" fill="black"/>
        <path d="M140.217 203.163H132.944V210.436H140.217V203.163Z" fill="black"/>
        <path d="M147.489 203.163H140.217V210.436H147.489V203.163Z" fill="black"/>
        <path d="M154.762 203.163H147.489V210.436H154.762V203.163Z" fill="black"/>
        <path d="M162.035 203.163H154.762V210.436H162.035V203.163Z" fill="black"/>
        <path d="M169.307 203.163H162.035V210.436H169.307V203.163Z" fill="black"/>
        <path d="M183.853 203.163H176.58V210.436H183.853V203.163Z" fill="black"/>
        <path d="M212.944 203.163H205.671V210.436H212.944V203.163Z" fill="black"/>
        <path d="M89.3074 210.436H82.0347V217.708H89.3074V210.436Z" fill="black"/>
        <path d="M111.126 210.436H103.853V217.708H111.126V210.436Z" fill="black"/>
        <path d="M132.944 210.436H125.671V217.708H132.944V210.436Z" fill="black"/>
        <path d="M169.307 210.436H162.035V217.708H169.307V210.436Z" fill="black"/>
        <path d="M183.853 210.436H176.58V217.708H183.853V210.436Z" fill="black"/>
        <path d="M191.126 210.436H183.853V217.708H191.126V210.436Z" fill="black"/>
        <path d="M205.671 210.436H198.398V217.708H205.671V210.436Z" fill="black"/>
        <path d="M212.944 210.436H205.671V217.708H212.944V210.436Z" fill="black"/>
        <path d="M220.217 210.436H212.944V217.708H220.217V210.436Z" fill="black"/>
        <path d="M96.5802 217.708H89.3074V224.981H96.5802V217.708Z" fill="black"/>
        <path d="M111.126 217.708H103.853V224.981H111.126V217.708Z" fill="black"/>
        <path d="M125.671 217.708H118.398V224.981H125.671V217.708Z" fill="black"/>
        <path d="M169.307 217.708H162.035V224.981H169.307V217.708Z" fill="black"/>
        <path d="M183.853 217.708H176.58V224.981H183.853V217.708Z" fill="black"/>
        <path d="M198.398 217.708H191.126V224.981H198.398V217.708Z" fill="black"/>
        <path d="M205.671 217.708H198.398V224.981H205.671V217.708Z" fill="black"/>
        <path d="M220.217 217.708H212.944V224.981H220.217V217.708Z" fill="black"/>
        <path d="M74.762 224.981H67.4893V232.254H74.762V224.981Z" fill="black"/>
        <path d="M96.5802 224.981H89.3074V232.254H96.5802V224.981Z" fill="black"/>
        <path d="M103.853 224.981H96.5802V232.254H103.853V224.981Z" fill="black"/>
        <path d="M140.217 224.981H132.944V232.254H140.217V224.981Z" fill="black"/>
        <path d="M147.489 224.981H140.217V232.254H147.489V224.981Z" fill="black"/>
        <path d="M154.762 224.981H147.489V232.254H154.762V224.981Z" fill="black"/>
        <path d="M162.035 224.981H154.762V232.254H162.035V224.981Z" fill="black"/>
        <path d="M176.58 224.981H169.307V232.254H176.58V224.981Z" fill="black"/>
        <path d="M191.126 224.981H183.853V232.254H191.126V224.981Z" fill="black"/>
        <path d="M198.398 224.981H191.126V232.254H198.398V224.981Z" fill="black"/>
        <path d="M52.5802 21.3447H16.9438H9.30745V28.9811V64.6175V72.2538H16.9438H52.5802H60.2165V64.6175V28.9811V21.3447H52.5802ZM52.5802 64.6175H16.9438V28.9811H52.5802V64.6175Z" fill="black"/>
        <path d="M212.58 21.3447H176.944H169.307V28.9811V64.6175V72.2538H176.944H212.58H220.217V64.6175V28.9811V21.3447H212.58ZM212.58 64.6175H176.944V28.9811H212.58V64.6175Z" fill="black"/>
        <path d="M52.5802 181.345H16.9438H9.30745V188.981V224.617V232.254H16.9438H52.5802H60.2165V224.617V188.981V181.345H52.5802ZM52.5802 224.617H16.9438V188.981H52.5802V224.617Z" fill="black"/>
        <path d="M45.6711 35.8906H23.8529V57.7088H45.6711V35.8906Z" fill="black"/>
        <path d="M205.671 35.8906H183.853V57.7088H205.671V35.8906Z" fill="black"/>
        <path d="M45.6711 195.891H23.8529V217.709H45.6711V195.891Z" fill="black"/>
    </g>
    <defs>
        <clipPath id="clip0">
            <rect width="240" height="240" fill="white" transform="translate(0.427429)"/>
        </clipPath>
    </defs>
</svg>
